<svg width="135" height="40" viewBox="0 0 135 40" fill="none" xmlns="http://www.w3.org/2000/svg">
<rect width="135" height="40" rx="20" fill="white"/>
<path d="M24.5064 25.15L24.4614 25.045L24.5214 24.46C24.8714 24.43 25.1414 24.395 25.3314 24.355C25.5214 24.315 25.6564 24.26 25.7364 24.19C25.8164 24.11 25.8564 24.01 25.8564 23.89C25.8564 23.79 25.8464 23.68 25.8264 23.56C25.8064 23.44 25.7714 23.31 25.7214 23.17L25.2264 21.535C25.0464 21.525 24.7914 21.52 24.4614 21.52C24.1414 21.52 23.8764 21.52 23.6664 21.52C23.3764 21.52 23.0714 21.535 22.7514 21.565C22.4414 21.595 22.2014 21.62 22.0314 21.64L21.4764 23.2C21.3864 23.47 21.3414 23.665 21.3414 23.785C21.3414 24.005 21.4114 24.165 21.5514 24.265C21.7014 24.355 21.9314 24.4 22.2414 24.4H23.0964L23.1264 24.46L23.0364 25.105C23.0364 25.105 22.9314 25.095 22.7214 25.075C22.5114 25.055 22.2464 25.035 21.9264 25.015C21.6064 25.005 21.2814 25 20.9514 25C20.7114 25 20.4614 25 20.2014 25C19.9514 25.01 19.7364 25.02 19.5564 25.03C19.3864 25.04 19.3014 25.045 19.3014 25.045L19.4214 24.34C19.7014 24.31 19.9264 24.215 20.0964 24.055C20.2664 23.895 20.4314 23.605 20.5914 23.185L23.5164 15.52L24.4614 15.265H24.5814C24.5814 15.265 24.6114 15.385 24.6714 15.625C24.7414 15.855 24.8314 16.18 24.9414 16.6C25.0614 17.01 25.1964 17.485 25.3464 18.025C25.5064 18.555 25.6714 19.12 25.8414 19.72C26.0214 20.32 26.2064 20.93 26.3964 21.55C26.5864 22.16 26.7764 22.745 26.9664 23.305C27.0864 23.675 27.2464 23.935 27.4464 24.085C27.6564 24.235 27.9764 24.33 28.4064 24.37L28.4364 24.43L28.3314 25.045C28.3314 25.045 28.2314 25.04 28.0314 25.03C27.8414 25.02 27.6214 25.01 27.3714 25C27.1214 25 26.9114 25 26.7414 25C26.3614 25 25.9964 25.01 25.6464 25.03C25.3064 25.06 25.0314 25.085 24.8214 25.105C24.6114 25.135 24.5064 25.15 24.5064 25.15ZM22.3014 20.905H23.6214C23.8214 20.905 24.0614 20.895 24.3414 20.875C24.6214 20.855 24.8464 20.84 25.0164 20.83L23.8314 16.9H23.7264L22.3014 20.905ZM28.6682 28.555L28.7432 27.97C29.0632 27.93 29.2682 27.84 29.3582 27.7C29.4582 27.57 29.5082 27.3 29.5082 26.89C29.5082 26.73 29.5082 26.495 29.5082 26.185C29.5182 25.875 29.5232 25.55 29.5232 25.21C29.5332 24.88 29.5382 24.61 29.5382 24.4V19.93C29.5382 19.59 29.4832 19.355 29.3732 19.225C29.2632 19.085 29.0732 19.015 28.8032 19.015H28.6382L28.5932 18.955L28.6382 18.46C28.9882 18.4 29.3232 18.34 29.6432 18.28C29.9632 18.21 30.2232 18.15 30.4232 18.1C30.6332 18.05 30.7382 18.025 30.7382 18.025L30.8282 18.145C30.8282 18.145 30.8082 18.23 30.7682 18.4C30.7282 18.57 30.6982 18.755 30.6782 18.955L30.7382 19.06C31.1782 18.75 31.5482 18.51 31.8482 18.34C32.1582 18.17 32.3682 18.085 32.4782 18.085C33.0582 18.085 33.5632 18.22 33.9932 18.49C34.4232 18.75 34.7582 19.12 34.9982 19.6C35.2482 20.07 35.3732 20.62 35.3732 21.25C35.3732 21.79 35.2732 22.3 35.0732 22.78C34.8832 23.25 34.6132 23.665 34.2632 24.025C33.9232 24.385 33.5282 24.67 33.0782 24.88C32.6282 25.08 32.1482 25.18 31.6382 25.18C31.5182 25.18 31.3732 25.175 31.2032 25.165C31.0332 25.155 30.8782 25.145 30.7382 25.135C30.6082 25.125 30.5432 25.12 30.5432 25.12C30.5432 25.37 30.5432 25.625 30.5432 25.885C30.5532 26.145 30.5582 26.405 30.5582 26.665C30.5582 27.125 30.6032 27.435 30.6932 27.595C30.7932 27.765 30.9832 27.85 31.2632 27.85C31.3432 27.85 31.4282 27.845 31.5182 27.835C31.6082 27.835 31.6932 27.835 31.7732 27.835L31.8032 27.88L31.6832 28.45C31.5632 28.45 31.4432 28.45 31.3232 28.45C31.2032 28.45 31.0832 28.45 30.9632 28.45C30.8532 28.45 30.7382 28.45 30.6182 28.45C30.4982 28.45 30.3782 28.45 30.2582 28.45C29.9782 28.45 29.7132 28.455 29.4632 28.465C29.2232 28.485 29.0282 28.505 28.8782 28.525C28.7382 28.545 28.6682 28.555 28.6682 28.555ZM32.0582 24.355C32.7282 24.355 33.2532 24.13 33.6332 23.68C34.0232 23.22 34.2182 22.595 34.2182 21.805C34.2182 21.295 34.1282 20.84 33.9482 20.44C33.7782 20.03 33.5432 19.705 33.2432 19.465C32.9432 19.225 32.6082 19.105 32.2382 19.105C32.0382 19.105 31.7932 19.175 31.5032 19.315C31.2132 19.445 30.9382 19.62 30.6782 19.84C30.6582 20.25 30.6382 20.7 30.6182 21.19C30.5982 21.68 30.5832 22.175 30.5732 22.675C30.5632 23.175 30.5582 23.64 30.5582 24.07C30.7582 24.15 30.9932 24.22 31.2632 24.28C31.5432 24.33 31.8082 24.355 32.0582 24.355ZM36.593 28.555L36.668 27.97C36.988 27.93 37.193 27.84 37.283 27.7C37.383 27.57 37.433 27.3 37.433 26.89C37.433 26.73 37.433 26.495 37.433 26.185C37.443 25.875 37.448 25.55 37.448 25.21C37.458 24.88 37.463 24.61 37.463 24.4V19.93C37.463 19.59 37.408 19.355 37.298 19.225C37.188 19.085 36.998 19.015 36.728 19.015H36.563L36.518 18.955L36.563 18.46C36.913 18.4 37.248 18.34 37.568 18.28C37.888 18.21 38.148 18.15 38.348 18.1C38.558 18.05 38.663 18.025 38.663 18.025L38.753 18.145C38.753 18.145 38.733 18.23 38.693 18.4C38.653 18.57 38.623 18.755 38.603 18.955L38.663 19.06C39.103 18.75 39.473 18.51 39.773 18.34C40.083 18.17 40.293 18.085 40.403 18.085C40.983 18.085 41.488 18.22 41.918 18.49C42.348 18.75 42.683 19.12 42.923 19.6C43.173 20.07 43.298 20.62 43.298 21.25C43.298 21.79 43.198 22.3 42.998 22.78C42.808 23.25 42.538 23.665 42.188 24.025C41.848 24.385 41.453 24.67 41.003 24.88C40.553 25.08 40.073 25.18 39.563 25.18C39.443 25.18 39.298 25.175 39.128 25.165C38.958 25.155 38.803 25.145 38.663 25.135C38.533 25.125 38.468 25.12 38.468 25.12C38.468 25.37 38.468 25.625 38.468 25.885C38.478 26.145 38.483 26.405 38.483 26.665C38.483 27.125 38.528 27.435 38.618 27.595C38.718 27.765 38.908 27.85 39.188 27.85C39.268 27.85 39.353 27.845 39.443 27.835C39.533 27.835 39.618 27.835 39.698 27.835L39.728 27.88L39.608 28.45C39.488 28.45 39.368 28.45 39.248 28.45C39.128 28.45 39.008 28.45 38.888 28.45C38.778 28.45 38.663 28.45 38.543 28.45C38.423 28.45 38.303 28.45 38.183 28.45C37.903 28.45 37.638 28.455 37.388 28.465C37.148 28.485 36.953 28.505 36.803 28.525C36.663 28.545 36.593 28.555 36.593 28.555ZM39.983 24.355C40.653 24.355 41.178 24.13 41.558 23.68C41.948 23.22 42.143 22.595 42.143 21.805C42.143 21.295 42.053 20.84 41.873 20.44C41.703 20.03 41.468 19.705 41.168 19.465C40.868 19.225 40.533 19.105 40.163 19.105C39.963 19.105 39.718 19.175 39.428 19.315C39.138 19.445 38.863 19.62 38.603 19.84C38.583 20.25 38.563 20.7 38.543 21.19C38.523 21.68 38.508 22.175 38.498 22.675C38.488 23.175 38.483 23.64 38.483 24.07C38.683 24.15 38.918 24.22 39.188 24.28C39.468 24.33 39.733 24.355 39.983 24.355ZM44.2478 25.18L44.3078 24.565C44.5978 24.485 44.7978 24.385 44.9078 24.265C45.0278 24.135 45.0978 23.965 45.1178 23.755C45.1378 23.545 45.1478 23.285 45.1478 22.975V15.61C45.1478 15.36 45.1228 15.18 45.0728 15.07C45.0328 14.95 44.9478 14.875 44.8178 14.845C44.6978 14.815 44.5128 14.815 44.2628 14.845L44.2178 14.815L44.2778 14.305C44.6478 14.255 45.0178 14.195 45.3878 14.125C45.7578 14.055 46.1278 13.97 46.4978 13.87L46.5878 14.065C46.5478 14.135 46.5078 14.365 46.4678 14.755C46.4278 15.135 46.3878 15.64 46.3478 16.27C46.3178 16.89 46.2878 17.595 46.2578 18.385C46.2278 19.175 46.2028 20.01 46.1828 20.89C46.1728 21.77 46.1678 22.65 46.1678 23.53C46.1678 23.83 46.2078 24.045 46.2878 24.175C46.3678 24.305 46.5028 24.37 46.6928 24.37L47.2178 24.34L47.2478 24.4L47.1278 25.045C46.9678 25.035 46.7528 25.025 46.4828 25.015C46.2228 25.005 45.9928 25 45.7928 25C45.6128 25 45.3828 25.015 45.1028 25.045C44.8328 25.085 44.5478 25.13 44.2478 25.18ZM48.0449 28.615C48.0049 28.615 47.9499 28.58 47.8799 28.51C47.8099 28.44 47.7349 28.355 47.6549 28.255C47.5849 28.165 47.5249 28.07 47.4749 27.97C47.4149 27.88 47.3849 27.81 47.3849 27.76L47.4599 27.655C48.0399 27.655 48.5699 27.415 49.0499 26.935C49.5299 26.465 49.9399 25.82 50.2799 25C50.1899 24.71 50.0849 24.38 49.9649 24.01C49.8449 23.64 49.7149 23.255 49.5749 22.855C49.4449 22.445 49.3099 22.04 49.1699 21.64C49.0399 21.23 48.9099 20.84 48.7799 20.47C48.6499 20.1 48.5299 19.77 48.4199 19.48C48.3199 19.22 48.1849 19.04 48.0149 18.94C47.8549 18.83 47.6499 18.77 47.3999 18.76L47.3699 18.7L47.4599 18.205C47.4599 18.205 47.5399 18.205 47.6999 18.205C47.8599 18.205 48.0399 18.21 48.2399 18.22C48.4399 18.22 48.5949 18.22 48.7049 18.22C48.9249 18.22 49.1399 18.215 49.3499 18.205C49.5699 18.195 49.7649 18.185 49.9349 18.175C50.1049 18.155 50.2399 18.14 50.3399 18.13C50.4499 18.12 50.5049 18.115 50.5049 18.115L50.5349 18.19L50.4449 18.655C50.1049 18.665 49.8749 18.7 49.7549 18.76C49.6449 18.81 49.5899 18.905 49.5899 19.045C49.5899 19.135 49.6199 19.31 49.6799 19.57C49.7499 19.82 49.8349 20.115 49.9349 20.455C50.0349 20.795 50.1399 21.15 50.2499 21.52C50.3599 21.88 50.4649 22.22 50.5649 22.54C50.6649 22.85 50.7449 23.105 50.8049 23.305C50.8749 23.495 50.9099 23.59 50.9099 23.59H50.9699C51.1399 23.18 51.3249 22.735 51.5249 22.255C51.7249 21.765 51.9099 21.295 52.0799 20.845C52.2599 20.395 52.4049 20.01 52.5149 19.69C52.6349 19.37 52.6949 19.175 52.6949 19.105C52.6949 18.965 52.6499 18.865 52.5599 18.805C52.4699 18.745 52.3249 18.715 52.1249 18.715H51.4349L51.4049 18.655L51.4949 18.16C51.4949 18.16 51.5699 18.165 51.7199 18.175C51.8799 18.185 52.0749 18.195 52.3049 18.205C52.5449 18.215 52.7849 18.22 53.0249 18.22C53.2049 18.22 53.3899 18.22 53.5799 18.22C53.7799 18.21 53.9499 18.205 54.0899 18.205C54.2299 18.205 54.2999 18.205 54.2999 18.205L54.1949 18.76C53.9749 18.8 53.8049 18.88 53.6849 19C53.5749 19.12 53.4649 19.325 53.3549 19.615L51.4499 24.175C51.0799 25.065 50.7549 25.8 50.4749 26.38C50.1949 26.96 49.9299 27.415 49.6799 27.745C49.4399 28.075 49.1899 28.305 48.9299 28.435C48.6699 28.565 48.3749 28.625 48.0449 28.615ZM65.7229 25.6C64.9929 24.46 64.2929 23.39 63.6229 22.39C62.9529 21.39 62.3579 20.515 61.8379 19.765C61.3179 19.005 60.9029 18.41 60.5929 17.98C60.2929 17.55 60.1429 17.335 60.1429 17.335H60.0679L59.9929 23.74C59.9929 23.96 60.0279 24.115 60.0979 24.205C60.1679 24.295 60.2879 24.34 60.4579 24.34C60.5079 24.34 60.5929 24.34 60.7129 24.34C60.8429 24.33 60.9579 24.325 61.0579 24.325C61.1679 24.325 61.2229 24.325 61.2229 24.325L61.2529 24.385L61.1179 25.06C61.1179 25.06 61.0629 25.055 60.9529 25.045C60.8529 25.045 60.7229 25.04 60.5629 25.03C60.4029 25.02 60.2279 25.01 60.0379 25C59.8579 25 59.6879 25 59.5279 25C59.3279 25 59.1179 25.01 58.8979 25.03C58.6879 25.05 58.5079 25.07 58.3579 25.09C58.2079 25.11 58.1329 25.12 58.1329 25.12L58.2079 24.43C58.5179 24.39 58.7479 24.3 58.8979 24.16C59.0479 24.02 59.1279 23.795 59.1379 23.485L59.3329 16.93C59.3329 16.62 59.2379 16.4 59.0479 16.27C58.8679 16.14 58.5279 16.05 58.0279 16L57.9829 15.925L58.1029 15.37C58.1029 15.37 58.1779 15.375 58.3279 15.385C58.4879 15.395 58.6679 15.41 58.8679 15.43C59.0779 15.44 59.2529 15.445 59.3929 15.445C59.5629 15.445 59.7229 15.44 59.8729 15.43C60.0229 15.42 60.1479 15.41 60.2479 15.4C60.3479 15.39 60.3979 15.385 60.3979 15.385C60.8979 16.155 61.3879 16.905 61.8679 17.635C62.3579 18.365 62.8179 19.045 63.2479 19.675C63.6779 20.305 64.0579 20.855 64.3879 21.325C64.7179 21.795 64.9729 22.165 65.1529 22.435C65.3429 22.695 65.4379 22.825 65.4379 22.825H65.5129V16.75C65.5129 16.53 65.4729 16.37 65.3929 16.27C65.3129 16.16 65.1879 16.105 65.0179 16.105C64.8879 16.105 64.7579 16.11 64.6279 16.12C64.5079 16.12 64.4479 16.12 64.4479 16.12L64.4179 16.06L64.5529 15.385C64.5529 15.385 64.6029 15.39 64.7029 15.4C64.8029 15.4 64.9279 15.405 65.0779 15.415C65.2279 15.425 65.3829 15.435 65.5429 15.445C65.7029 15.445 65.8479 15.445 65.9779 15.445C66.1879 15.445 66.4079 15.435 66.6379 15.415C66.8679 15.395 67.0629 15.375 67.2229 15.355C67.3829 15.335 67.4629 15.325 67.4629 15.325L67.3879 16.015C67.0479 16.055 66.7929 16.15 66.6229 16.3C66.4629 16.45 66.3779 16.67 66.3679 16.96L66.1579 25.39L65.7229 25.6ZM71.1111 25.18C70.5411 25.18 70.0361 25.04 69.5961 24.76C69.1561 24.48 68.8111 24.09 68.5611 23.59C68.3211 23.08 68.2011 22.5 68.2011 21.85C68.2011 21.13 68.3511 20.485 68.6511 19.915C68.9611 19.335 69.3811 18.88 69.9111 18.55C70.4411 18.21 71.0311 18.04 71.6811 18.04C72.2511 18.04 72.7561 18.18 73.1961 18.46C73.6361 18.74 73.9761 19.13 74.2161 19.63C74.4661 20.13 74.5911 20.71 74.5911 21.37C74.5911 22.08 74.4361 22.725 74.1261 23.305C73.8261 23.885 73.4111 24.345 72.8811 24.685C72.3611 25.015 71.7711 25.18 71.1111 25.18ZM71.5311 24.445C72.0911 24.445 72.5361 24.22 72.8661 23.77C73.1961 23.31 73.3611 22.69 73.3611 21.91C73.3611 21.31 73.2711 20.78 73.0911 20.32C72.9111 19.86 72.6611 19.5 72.3411 19.24C72.0211 18.98 71.6511 18.85 71.2311 18.85C70.6711 18.85 70.2261 19.08 69.8961 19.54C69.5661 20 69.4011 20.625 69.4011 21.415C69.4011 22.015 69.4911 22.545 69.6711 23.005C69.8511 23.455 70.1011 23.81 70.4211 24.07C70.7411 24.32 71.1111 24.445 71.5311 24.445ZM77.6275 25.255C77.6275 25.255 77.5925 25.145 77.5225 24.925C77.4625 24.705 77.3775 24.415 77.2675 24.055C77.1575 23.695 77.0325 23.3 76.8925 22.87C76.7625 22.44 76.6325 22.01 76.5025 21.58C76.3725 21.14 76.2475 20.74 76.1275 20.38C76.0175 20.01 75.9275 19.72 75.8575 19.51C75.6875 19.02 75.3575 18.77 74.8675 18.76L74.8375 18.7L74.9275 18.205C74.9275 18.205 75.0025 18.205 75.1525 18.205C75.3125 18.205 75.4875 18.21 75.6775 18.22C75.8675 18.22 76.0175 18.22 76.1275 18.22C76.4275 18.22 76.7125 18.21 76.9825 18.19C77.2525 18.17 77.4675 18.155 77.6275 18.145C77.7975 18.125 77.8825 18.115 77.8825 18.115L77.9125 18.19L77.8225 18.655C77.4925 18.665 77.2675 18.7 77.1475 18.76C77.0275 18.81 76.9675 18.905 76.9675 19.045C76.9675 19.125 76.9975 19.295 77.0575 19.555C77.1175 19.805 77.1925 20.11 77.2825 20.47C77.3825 20.82 77.4825 21.185 77.5825 21.565C77.6925 21.935 77.7925 22.285 77.8825 22.615C77.9825 22.945 78.0625 23.215 78.1225 23.425C78.1825 23.625 78.2125 23.725 78.2125 23.725H78.2725C78.4225 23.335 78.5625 22.975 78.6925 22.645C78.8325 22.305 78.9575 21.99 79.0675 21.7C79.1875 21.41 79.2975 21.15 79.3975 20.92C79.4975 20.68 79.5825 20.465 79.6525 20.275C79.7325 20.075 79.7975 19.9 79.8475 19.75C79.7475 19.43 79.6225 19.185 79.4725 19.015C79.3225 18.845 79.0925 18.76 78.7825 18.76L78.7525 18.7L78.8425 18.205C78.8425 18.205 78.9175 18.205 79.0675 18.205C79.2275 18.205 79.4025 18.21 79.5925 18.22C79.7825 18.22 79.9325 18.22 80.0425 18.22C80.3425 18.22 80.6225 18.215 80.8825 18.205C81.1525 18.185 81.3725 18.17 81.5425 18.16C81.7125 18.15 81.7975 18.145 81.7975 18.145L81.8275 18.22L81.7375 18.685C81.3975 18.695 81.1675 18.725 81.0475 18.775C80.9375 18.825 80.8825 18.915 80.8825 19.045C80.8825 19.115 80.9125 19.28 80.9725 19.54C81.0325 19.79 81.1075 20.095 81.1975 20.455C81.2975 20.805 81.3975 21.17 81.4975 21.55C81.6075 21.93 81.7075 22.285 81.7975 22.615C81.8975 22.945 81.9775 23.215 82.0375 23.425C82.0975 23.625 82.1275 23.725 82.1275 23.725H82.1875C82.5475 22.805 82.8575 22.025 83.1175 21.385C83.3775 20.745 83.5775 20.24 83.7175 19.87C83.8575 19.49 83.9275 19.24 83.9275 19.12C83.9275 18.98 83.8825 18.885 83.7925 18.835C83.7025 18.775 83.5425 18.745 83.3125 18.745H82.7575L82.6975 18.655L82.7725 18.19C82.7725 18.19 82.8475 18.195 82.9975 18.205C83.1475 18.205 83.3325 18.21 83.5525 18.22C83.7825 18.22 84.0175 18.22 84.2575 18.22C84.4275 18.22 84.6075 18.22 84.7975 18.22C84.9875 18.21 85.1475 18.205 85.2775 18.205C85.4175 18.205 85.4875 18.205 85.4875 18.205L85.3825 18.76C85.1825 18.78 85.0225 18.865 84.9025 19.015C84.7825 19.155 84.6325 19.445 84.4525 19.885L82.3525 25L81.5425 25.255C81.5425 25.255 81.4975 25.115 81.4075 24.835C81.3275 24.545 81.2175 24.175 81.0775 23.725C80.9375 23.265 80.7875 22.78 80.6275 22.27C80.4775 21.76 80.3325 21.28 80.1925 20.83H80.1025L78.4525 25L77.6275 25.255Z" fill="black"/>
<path d="M24.5064 25.15L24.4614 25.045L24.5214 24.46C24.8714 24.43 25.1414 24.395 25.3314 24.355C25.5214 24.315 25.6564 24.26 25.7364 24.19C25.8164 24.11 25.8564 24.01 25.8564 23.89C25.8564 23.79 25.8464 23.68 25.8264 23.56C25.8064 23.44 25.7714 23.31 25.7214 23.17L25.2264 21.535C25.0464 21.525 24.7914 21.52 24.4614 21.52C24.1414 21.52 23.8764 21.52 23.6664 21.52C23.3764 21.52 23.0714 21.535 22.7514 21.565C22.4414 21.595 22.2014 21.62 22.0314 21.64L21.4764 23.2C21.3864 23.47 21.3414 23.665 21.3414 23.785C21.3414 24.005 21.4114 24.165 21.5514 24.265C21.7014 24.355 21.9314 24.4 22.2414 24.4H23.0964L23.1264 24.46L23.0364 25.105C23.0364 25.105 22.9314 25.095 22.7214 25.075C22.5114 25.055 22.2464 25.035 21.9264 25.015C21.6064 25.005 21.2814 25 20.9514 25C20.7114 25 20.4614 25 20.2014 25C19.9514 25.01 19.7364 25.02 19.5564 25.03C19.3864 25.04 19.3014 25.045 19.3014 25.045L19.4214 24.34C19.7014 24.31 19.9264 24.215 20.0964 24.055C20.2664 23.895 20.4314 23.605 20.5914 23.185L23.5164 15.52L24.4614 15.265H24.5814C24.5814 15.265 24.6114 15.385 24.6714 15.625C24.7414 15.855 24.8314 16.18 24.9414 16.6C25.0614 17.01 25.1964 17.485 25.3464 18.025C25.5064 18.555 25.6714 19.12 25.8414 19.72C26.0214 20.32 26.2064 20.93 26.3964 21.55C26.5864 22.16 26.7764 22.745 26.9664 23.305C27.0864 23.675 27.2464 23.935 27.4464 24.085C27.6564 24.235 27.9764 24.33 28.4064 24.37L28.4364 24.43L28.3314 25.045C28.3314 25.045 28.2314 25.04 28.0314 25.03C27.8414 25.02 27.6214 25.01 27.3714 25C27.1214 25 26.9114 25 26.7414 25C26.3614 25 25.9964 25.01 25.6464 25.03C25.3064 25.06 25.0314 25.085 24.8214 25.105C24.6114 25.135 24.5064 25.15 24.5064 25.15ZM22.3014 20.905H23.6214C23.8214 20.905 24.0614 20.895 24.3414 20.875C24.6214 20.855 24.8464 20.84 25.0164 20.83L23.8314 16.9H23.7264L22.3014 20.905ZM28.6682 28.555L28.7432 27.97C29.0632 27.93 29.2682 27.84 29.3582 27.7C29.4582 27.57 29.5082 27.3 29.5082 26.89C29.5082 26.73 29.5082 26.495 29.5082 26.185C29.5182 25.875 29.5232 25.55 29.5232 25.21C29.5332 24.88 29.5382 24.61 29.5382 24.4V19.93C29.5382 19.59 29.4832 19.355 29.3732 19.225C29.2632 19.085 29.0732 19.015 28.8032 19.015H28.6382L28.5932 18.955L28.6382 18.46C28.9882 18.4 29.3232 18.34 29.6432 18.28C29.9632 18.21 30.2232 18.15 30.4232 18.1C30.6332 18.05 30.7382 18.025 30.7382 18.025L30.8282 18.145C30.8282 18.145 30.8082 18.23 30.7682 18.4C30.7282 18.57 30.6982 18.755 30.6782 18.955L30.7382 19.06C31.1782 18.75 31.5482 18.51 31.8482 18.34C32.1582 18.17 32.3682 18.085 32.4782 18.085C33.0582 18.085 33.5632 18.22 33.9932 18.49C34.4232 18.75 34.7582 19.12 34.9982 19.6C35.2482 20.07 35.3732 20.62 35.3732 21.25C35.3732 21.79 35.2732 22.3 35.0732 22.78C34.8832 23.25 34.6132 23.665 34.2632 24.025C33.9232 24.385 33.5282 24.67 33.0782 24.88C32.6282 25.08 32.1482 25.18 31.6382 25.18C31.5182 25.18 31.3732 25.175 31.2032 25.165C31.0332 25.155 30.8782 25.145 30.7382 25.135C30.6082 25.125 30.5432 25.12 30.5432 25.12C30.5432 25.37 30.5432 25.625 30.5432 25.885C30.5532 26.145 30.5582 26.405 30.5582 26.665C30.5582 27.125 30.6032 27.435 30.6932 27.595C30.7932 27.765 30.9832 27.85 31.2632 27.85C31.3432 27.85 31.4282 27.845 31.5182 27.835C31.6082 27.835 31.6932 27.835 31.7732 27.835L31.8032 27.88L31.6832 28.45C31.5632 28.45 31.4432 28.45 31.3232 28.45C31.2032 28.45 31.0832 28.45 30.9632 28.45C30.8532 28.45 30.7382 28.45 30.6182 28.45C30.4982 28.45 30.3782 28.45 30.2582 28.45C29.9782 28.45 29.7132 28.455 29.4632 28.465C29.2232 28.485 29.0282 28.505 28.8782 28.525C28.7382 28.545 28.6682 28.555 28.6682 28.555ZM32.0582 24.355C32.7282 24.355 33.2532 24.13 33.6332 23.68C34.0232 23.22 34.2182 22.595 34.2182 21.805C34.2182 21.295 34.1282 20.84 33.9482 20.44C33.7782 20.03 33.5432 19.705 33.2432 19.465C32.9432 19.225 32.6082 19.105 32.2382 19.105C32.0382 19.105 31.7932 19.175 31.5032 19.315C31.2132 19.445 30.9382 19.62 30.6782 19.84C30.6582 20.25 30.6382 20.7 30.6182 21.19C30.5982 21.68 30.5832 22.175 30.5732 22.675C30.5632 23.175 30.5582 23.64 30.5582 24.07C30.7582 24.15 30.9932 24.22 31.2632 24.28C31.5432 24.33 31.8082 24.355 32.0582 24.355ZM36.593 28.555L36.668 27.97C36.988 27.93 37.193 27.84 37.283 27.7C37.383 27.57 37.433 27.3 37.433 26.89C37.433 26.73 37.433 26.495 37.433 26.185C37.443 25.875 37.448 25.55 37.448 25.21C37.458 24.88 37.463 24.61 37.463 24.4V19.93C37.463 19.59 37.408 19.355 37.298 19.225C37.188 19.085 36.998 19.015 36.728 19.015H36.563L36.518 18.955L36.563 18.46C36.913 18.4 37.248 18.34 37.568 18.28C37.888 18.21 38.148 18.15 38.348 18.1C38.558 18.05 38.663 18.025 38.663 18.025L38.753 18.145C38.753 18.145 38.733 18.23 38.693 18.4C38.653 18.57 38.623 18.755 38.603 18.955L38.663 19.06C39.103 18.75 39.473 18.51 39.773 18.34C40.083 18.17 40.293 18.085 40.403 18.085C40.983 18.085 41.488 18.22 41.918 18.49C42.348 18.75 42.683 19.12 42.923 19.6C43.173 20.07 43.298 20.62 43.298 21.25C43.298 21.79 43.198 22.3 42.998 22.78C42.808 23.25 42.538 23.665 42.188 24.025C41.848 24.385 41.453 24.67 41.003 24.88C40.553 25.08 40.073 25.18 39.563 25.18C39.443 25.18 39.298 25.175 39.128 25.165C38.958 25.155 38.803 25.145 38.663 25.135C38.533 25.125 38.468 25.12 38.468 25.12C38.468 25.37 38.468 25.625 38.468 25.885C38.478 26.145 38.483 26.405 38.483 26.665C38.483 27.125 38.528 27.435 38.618 27.595C38.718 27.765 38.908 27.85 39.188 27.85C39.268 27.85 39.353 27.845 39.443 27.835C39.533 27.835 39.618 27.835 39.698 27.835L39.728 27.88L39.608 28.45C39.488 28.45 39.368 28.45 39.248 28.45C39.128 28.45 39.008 28.45 38.888 28.45C38.778 28.45 38.663 28.45 38.543 28.45C38.423 28.45 38.303 28.45 38.183 28.45C37.903 28.45 37.638 28.455 37.388 28.465C37.148 28.485 36.953 28.505 36.803 28.525C36.663 28.545 36.593 28.555 36.593 28.555ZM39.983 24.355C40.653 24.355 41.178 24.13 41.558 23.68C41.948 23.22 42.143 22.595 42.143 21.805C42.143 21.295 42.053 20.84 41.873 20.44C41.703 20.03 41.468 19.705 41.168 19.465C40.868 19.225 40.533 19.105 40.163 19.105C39.963 19.105 39.718 19.175 39.428 19.315C39.138 19.445 38.863 19.62 38.603 19.84C38.583 20.25 38.563 20.7 38.543 21.19C38.523 21.68 38.508 22.175 38.498 22.675C38.488 23.175 38.483 23.64 38.483 24.07C38.683 24.15 38.918 24.22 39.188 24.28C39.468 24.33 39.733 24.355 39.983 24.355ZM44.2478 25.18L44.3078 24.565C44.5978 24.485 44.7978 24.385 44.9078 24.265C45.0278 24.135 45.0978 23.965 45.1178 23.755C45.1378 23.545 45.1478 23.285 45.1478 22.975V15.61C45.1478 15.36 45.1228 15.18 45.0728 15.07C45.0328 14.95 44.9478 14.875 44.8178 14.845C44.6978 14.815 44.5128 14.815 44.2628 14.845L44.2178 14.815L44.2778 14.305C44.6478 14.255 45.0178 14.195 45.3878 14.125C45.7578 14.055 46.1278 13.97 46.4978 13.87L46.5878 14.065C46.5478 14.135 46.5078 14.365 46.4678 14.755C46.4278 15.135 46.3878 15.64 46.3478 16.27C46.3178 16.89 46.2878 17.595 46.2578 18.385C46.2278 19.175 46.2028 20.01 46.1828 20.89C46.1728 21.77 46.1678 22.65 46.1678 23.53C46.1678 23.83 46.2078 24.045 46.2878 24.175C46.3678 24.305 46.5028 24.37 46.6928 24.37L47.2178 24.34L47.2478 24.4L47.1278 25.045C46.9678 25.035 46.7528 25.025 46.4828 25.015C46.2228 25.005 45.9928 25 45.7928 25C45.6128 25 45.3828 25.015 45.1028 25.045C44.8328 25.085 44.5478 25.13 44.2478 25.18ZM48.0449 28.615C48.0049 28.615 47.9499 28.58 47.8799 28.51C47.8099 28.44 47.7349 28.355 47.6549 28.255C47.5849 28.165 47.5249 28.07 47.4749 27.97C47.4149 27.88 47.3849 27.81 47.3849 27.76L47.4599 27.655C48.0399 27.655 48.5699 27.415 49.0499 26.935C49.5299 26.465 49.9399 25.82 50.2799 25C50.1899 24.71 50.0849 24.38 49.9649 24.01C49.8449 23.64 49.7149 23.255 49.5749 22.855C49.4449 22.445 49.3099 22.04 49.1699 21.64C49.0399 21.23 48.9099 20.84 48.7799 20.47C48.6499 20.1 48.5299 19.77 48.4199 19.48C48.3199 19.22 48.1849 19.04 48.0149 18.94C47.8549 18.83 47.6499 18.77 47.3999 18.76L47.3699 18.7L47.4599 18.205C47.4599 18.205 47.5399 18.205 47.6999 18.205C47.8599 18.205 48.0399 18.21 48.2399 18.22C48.4399 18.22 48.5949 18.22 48.7049 18.22C48.9249 18.22 49.1399 18.215 49.3499 18.205C49.5699 18.195 49.7649 18.185 49.9349 18.175C50.1049 18.155 50.2399 18.14 50.3399 18.13C50.4499 18.12 50.5049 18.115 50.5049 18.115L50.5349 18.19L50.4449 18.655C50.1049 18.665 49.8749 18.7 49.7549 18.76C49.6449 18.81 49.5899 18.905 49.5899 19.045C49.5899 19.135 49.6199 19.31 49.6799 19.57C49.7499 19.82 49.8349 20.115 49.9349 20.455C50.0349 20.795 50.1399 21.15 50.2499 21.52C50.3599 21.88 50.4649 22.22 50.5649 22.54C50.6649 22.85 50.7449 23.105 50.8049 23.305C50.8749 23.495 50.9099 23.59 50.9099 23.59H50.9699C51.1399 23.18 51.3249 22.735 51.5249 22.255C51.7249 21.765 51.9099 21.295 52.0799 20.845C52.2599 20.395 52.4049 20.01 52.5149 19.69C52.6349 19.37 52.6949 19.175 52.6949 19.105C52.6949 18.965 52.6499 18.865 52.5599 18.805C52.4699 18.745 52.3249 18.715 52.1249 18.715H51.4349L51.4049 18.655L51.4949 18.16C51.4949 18.16 51.5699 18.165 51.7199 18.175C51.8799 18.185 52.0749 18.195 52.3049 18.205C52.5449 18.215 52.7849 18.22 53.0249 18.22C53.2049 18.22 53.3899 18.22 53.5799 18.22C53.7799 18.21 53.9499 18.205 54.0899 18.205C54.2299 18.205 54.2999 18.205 54.2999 18.205L54.1949 18.76C53.9749 18.8 53.8049 18.88 53.6849 19C53.5749 19.12 53.4649 19.325 53.3549 19.615L51.4499 24.175C51.0799 25.065 50.7549 25.8 50.4749 26.38C50.1949 26.96 49.9299 27.415 49.6799 27.745C49.4399 28.075 49.1899 28.305 48.9299 28.435C48.6699 28.565 48.3749 28.625 48.0449 28.615ZM65.7229 25.6C64.9929 24.46 64.2929 23.39 63.6229 22.39C62.9529 21.39 62.3579 20.515 61.8379 19.765C61.3179 19.005 60.9029 18.41 60.5929 17.98C60.2929 17.55 60.1429 17.335 60.1429 17.335H60.0679L59.9929 23.74C59.9929 23.96 60.0279 24.115 60.0979 24.205C60.1679 24.295 60.2879 24.34 60.4579 24.34C60.5079 24.34 60.5929 24.34 60.7129 24.34C60.8429 24.33 60.9579 24.325 61.0579 24.325C61.1679 24.325 61.2229 24.325 61.2229 24.325L61.2529 24.385L61.1179 25.06C61.1179 25.06 61.0629 25.055 60.9529 25.045C60.8529 25.045 60.7229 25.04 60.5629 25.03C60.4029 25.02 60.2279 25.01 60.0379 25C59.8579 25 59.6879 25 59.5279 25C59.3279 25 59.1179 25.01 58.8979 25.03C58.6879 25.05 58.5079 25.07 58.3579 25.09C58.2079 25.11 58.1329 25.12 58.1329 25.12L58.2079 24.43C58.5179 24.39 58.7479 24.3 58.8979 24.16C59.0479 24.02 59.1279 23.795 59.1379 23.485L59.3329 16.93C59.3329 16.62 59.2379 16.4 59.0479 16.27C58.8679 16.14 58.5279 16.05 58.0279 16L57.9829 15.925L58.1029 15.37C58.1029 15.37 58.1779 15.375 58.3279 15.385C58.4879 15.395 58.6679 15.41 58.8679 15.43C59.0779 15.44 59.2529 15.445 59.3929 15.445C59.5629 15.445 59.7229 15.44 59.8729 15.43C60.0229 15.42 60.1479 15.41 60.2479 15.4C60.3479 15.39 60.3979 15.385 60.3979 15.385C60.8979 16.155 61.3879 16.905 61.8679 17.635C62.3579 18.365 62.8179 19.045 63.2479 19.675C63.6779 20.305 64.0579 20.855 64.3879 21.325C64.7179 21.795 64.9729 22.165 65.1529 22.435C65.3429 22.695 65.4379 22.825 65.4379 22.825H65.5129V16.75C65.5129 16.53 65.4729 16.37 65.3929 16.27C65.3129 16.16 65.1879 16.105 65.0179 16.105C64.8879 16.105 64.7579 16.11 64.6279 16.12C64.5079 16.12 64.4479 16.12 64.4479 16.12L64.4179 16.06L64.5529 15.385C64.5529 15.385 64.6029 15.39 64.7029 15.4C64.8029 15.4 64.9279 15.405 65.0779 15.415C65.2279 15.425 65.3829 15.435 65.5429 15.445C65.7029 15.445 65.8479 15.445 65.9779 15.445C66.1879 15.445 66.4079 15.435 66.6379 15.415C66.8679 15.395 67.0629 15.375 67.2229 15.355C67.3829 15.335 67.4629 15.325 67.4629 15.325L67.3879 16.015C67.0479 16.055 66.7929 16.15 66.6229 16.3C66.4629 16.45 66.3779 16.67 66.3679 16.96L66.1579 25.39L65.7229 25.6ZM71.1111 25.18C70.5411 25.18 70.0361 25.04 69.5961 24.76C69.1561 24.48 68.8111 24.09 68.5611 23.59C68.3211 23.08 68.2011 22.5 68.2011 21.85C68.2011 21.13 68.3511 20.485 68.6511 19.915C68.9611 19.335 69.3811 18.88 69.9111 18.55C70.4411 18.21 71.0311 18.04 71.6811 18.04C72.2511 18.04 72.7561 18.18 73.1961 18.46C73.6361 18.74 73.9761 19.13 74.2161 19.63C74.4661 20.13 74.5911 20.71 74.5911 21.37C74.5911 22.08 74.4361 22.725 74.1261 23.305C73.8261 23.885 73.4111 24.345 72.8811 24.685C72.3611 25.015 71.7711 25.18 71.1111 25.18ZM71.5311 24.445C72.0911 24.445 72.5361 24.22 72.8661 23.77C73.1961 23.31 73.3611 22.69 73.3611 21.91C73.3611 21.31 73.2711 20.78 73.0911 20.32C72.9111 19.86 72.6611 19.5 72.3411 19.24C72.0211 18.98 71.6511 18.85 71.2311 18.85C70.6711 18.85 70.2261 19.08 69.8961 19.54C69.5661 20 69.4011 20.625 69.4011 21.415C69.4011 22.015 69.4911 22.545 69.6711 23.005C69.8511 23.455 70.1011 23.81 70.4211 24.07C70.7411 24.32 71.1111 24.445 71.5311 24.445ZM77.6275 25.255C77.6275 25.255 77.5925 25.145 77.5225 24.925C77.4625 24.705 77.3775 24.415 77.2675 24.055C77.1575 23.695 77.0325 23.3 76.8925 22.87C76.7625 22.44 76.6325 22.01 76.5025 21.58C76.3725 21.14 76.2475 20.74 76.1275 20.38C76.0175 20.01 75.9275 19.72 75.8575 19.51C75.6875 19.02 75.3575 18.77 74.8675 18.76L74.8375 18.7L74.9275 18.205C74.9275 18.205 75.0025 18.205 75.1525 18.205C75.3125 18.205 75.4875 18.21 75.6775 18.22C75.8675 18.22 76.0175 18.22 76.1275 18.22C76.4275 18.22 76.7125 18.21 76.9825 18.19C77.2525 18.17 77.4675 18.155 77.6275 18.145C77.7975 18.125 77.8825 18.115 77.8825 18.115L77.9125 18.19L77.8225 18.655C77.4925 18.665 77.2675 18.7 77.1475 18.76C77.0275 18.81 76.9675 18.905 76.9675 19.045C76.9675 19.125 76.9975 19.295 77.0575 19.555C77.1175 19.805 77.1925 20.11 77.2825 20.47C77.3825 20.82 77.4825 21.185 77.5825 21.565C77.6925 21.935 77.7925 22.285 77.8825 22.615C77.9825 22.945 78.0625 23.215 78.1225 23.425C78.1825 23.625 78.2125 23.725 78.2125 23.725H78.2725C78.4225 23.335 78.5625 22.975 78.6925 22.645C78.8325 22.305 78.9575 21.99 79.0675 21.7C79.1875 21.41 79.2975 21.15 79.3975 20.92C79.4975 20.68 79.5825 20.465 79.6525 20.275C79.7325 20.075 79.7975 19.9 79.8475 19.75C79.7475 19.43 79.6225 19.185 79.4725 19.015C79.3225 18.845 79.0925 18.76 78.7825 18.76L78.7525 18.7L78.8425 18.205C78.8425 18.205 78.9175 18.205 79.0675 18.205C79.2275 18.205 79.4025 18.21 79.5925 18.22C79.7825 18.22 79.9325 18.22 80.0425 18.22C80.3425 18.22 80.6225 18.215 80.8825 18.205C81.1525 18.185 81.3725 18.17 81.5425 18.16C81.7125 18.15 81.7975 18.145 81.7975 18.145L81.8275 18.22L81.7375 18.685C81.3975 18.695 81.1675 18.725 81.0475 18.775C80.9375 18.825 80.8825 18.915 80.8825 19.045C80.8825 19.115 80.9125 19.28 80.9725 19.54C81.0325 19.79 81.1075 20.095 81.1975 20.455C81.2975 20.805 81.3975 21.17 81.4975 21.55C81.6075 21.93 81.7075 22.285 81.7975 22.615C81.8975 22.945 81.9775 23.215 82.0375 23.425C82.0975 23.625 82.1275 23.725 82.1275 23.725H82.1875C82.5475 22.805 82.8575 22.025 83.1175 21.385C83.3775 20.745 83.5775 20.24 83.7175 19.87C83.8575 19.49 83.9275 19.24 83.9275 19.12C83.9275 18.98 83.8825 18.885 83.7925 18.835C83.7025 18.775 83.5425 18.745 83.3125 18.745H82.7575L82.6975 18.655L82.7725 18.19C82.7725 18.19 82.8475 18.195 82.9975 18.205C83.1475 18.205 83.3325 18.21 83.5525 18.22C83.7825 18.22 84.0175 18.22 84.2575 18.22C84.4275 18.22 84.6075 18.22 84.7975 18.22C84.9875 18.21 85.1475 18.205 85.2775 18.205C85.4175 18.205 85.4875 18.205 85.4875 18.205L85.3825 18.76C85.1825 18.78 85.0225 18.865 84.9025 19.015C84.7825 19.155 84.6325 19.445 84.4525 19.885L82.3525 25L81.5425 25.255C81.5425 25.255 81.4975 25.115 81.4075 24.835C81.3275 24.545 81.2175 24.175 81.0775 23.725C80.9375 23.265 80.7875 22.78 80.6275 22.27C80.4775 21.76 80.3325 21.28 80.1925 20.83H80.1025L78.4525 25L77.6275 25.255Z" fill="black" fill-opacity="0.2"/>
<path d="M105.499 18.4048L101.505 14.4106L100.327 15.5892L105.499 20.7618L110.672 15.5892L109.493 14.4106L105.499 18.4048ZM110.499 24.1666H100.499V22.4999H110.499V24.1666Z" fill="black"/>
</svg>
