<svg width="200" height="80" viewBox="0 0 200 80" fill="none" xmlns="http://www.w3.org/2000/svg">
<rect width="200" height="80" fill="#2656FF"/>
<path d="M160 37.98V34.8962L164 39.0079L160 43.1197V40.0359H156V37.98H160ZM160 28.7285C165.52 28.7285 170 33.3337 170 39.0079C170 44.6822 165.52 49.2874 160 49.2874C154.48 49.2874 150 44.6822 150 39.0079C150 33.3337 154.48 28.7285 160 28.7285ZM160 47.2315C164.42 47.2315 168 43.5515 168 39.0079C168 34.4644 164.42 30.7844 160 30.7844C155.58 30.7844 152 34.4644 152 39.0079C152 43.5515 155.58 47.2315 160 47.2315Z" fill="white"/>
<path d="M34.16 48.28C31.64 48.28 29.6933 47.64 28.32 46.36C26.96 45.08 26.28 43.0333 26.28 40.22C26.28 34.8467 28.8933 32.16 34.12 32.16C35.3867 32.16 36.56 32.3133 37.64 32.62C38.7333 32.9267 39.5467 33.2667 40.08 33.64V38.64H35.28V37.2C35.28 36.6933 35.1667 36.32 34.94 36.08C34.7133 35.84 34.3733 35.72 33.92 35.72C33.4667 35.72 33.1267 35.84 32.9 36.08C32.6733 36.32 32.56 36.6933 32.56 37.2V43.24C32.56 43.7467 32.6733 44.12 32.9 44.36C33.1267 44.6 33.4667 44.72 33.92 44.72C34.3733 44.72 34.7133 44.6 34.94 44.36C35.1667 44.12 35.28 43.7467 35.28 43.24V41.62H40.08V46.8C39.5333 47.1733 38.72 47.5133 37.64 47.82C36.5733 48.1267 35.4133 48.28 34.16 48.28ZM48.3536 48.28C45.9136 48.28 44.0269 47.64 42.6936 46.36C41.3736 45.08 40.7136 43.0333 40.7136 40.22C40.7136 37.4067 41.3736 35.36 42.6936 34.08C44.0269 32.8 45.9136 32.16 48.3536 32.16C50.7936 32.16 52.6736 32.8 53.9936 34.08C55.3269 35.36 55.9936 37.4067 55.9936 40.22C55.9936 43.0333 55.3269 45.08 53.9936 46.36C52.6736 47.64 50.7936 48.28 48.3536 48.28ZM48.3536 44.72C48.8069 44.72 49.1469 44.6 49.3736 44.36C49.6003 44.12 49.7136 43.7467 49.7136 43.24V37.2C49.7136 36.6933 49.6003 36.32 49.3736 36.08C49.1469 35.84 48.8069 35.72 48.3536 35.72C47.9003 35.72 47.5603 35.84 47.3336 36.08C47.1069 36.32 46.9936 36.6933 46.9936 37.2V43.24C46.9936 43.76 47.1069 44.14 47.3336 44.38C47.5603 44.6067 47.9003 44.72 48.3536 44.72ZM68.1934 32.44H74.7534V35.72H73.7534V48H68.1334L62.2734 38.98V44.72H63.2334V48H56.6734V44.72H57.6734V35.72H56.6734V32.44H63.8934L69.1534 40.46V35.72H68.1934V32.44ZM90.4411 37.28H87.0011V35.72H85.7211V44.72H87.1211V48H78.7211V44.72H80.1211V35.72H78.8411V37.28H75.4011V32.44H90.4411V37.28ZM103.6 44.72H104.4V48H96.5595V44.72H97.7595L97.4395 43.12H94.7195L94.3995 44.72H95.5995V48H88.7595V44.72H89.5595L92.9395 32.44H100.22L103.6 44.72ZM95.1595 41H96.9995L96.1795 37.02H95.9795L95.1595 41ZM112.187 48.28C109.667 48.28 107.721 47.64 106.347 46.36C104.987 45.08 104.307 43.0333 104.307 40.22C104.307 34.8467 106.921 32.16 112.147 32.16C113.414 32.16 114.587 32.3133 115.667 32.62C116.761 32.9267 117.574 33.2667 118.107 33.64V38.64H113.307V37.2C113.307 36.6933 113.194 36.32 112.967 36.08C112.741 35.84 112.401 35.72 111.947 35.72C111.494 35.72 111.154 35.84 110.927 36.08C110.701 36.32 110.587 36.6933 110.587 37.2V43.24C110.587 43.7467 110.701 44.12 110.927 44.36C111.154 44.6 111.494 44.72 111.947 44.72C112.401 44.72 112.741 44.6 112.967 44.36C113.194 44.12 113.307 43.7467 113.307 43.24V41.62H118.107V46.8C117.561 47.1733 116.747 47.5133 115.667 47.82C114.601 48.1267 113.441 48.28 112.187 48.28ZM133.781 37.28H130.341V35.72H129.061V44.72H130.461V48H122.061V44.72H123.461V35.72H122.181V37.28H118.741V32.44H133.781V37.28Z" fill="white"/>
</svg>
