<svg width="105" height="110" viewBox="0 0 105 110" fill="none" xmlns="http://www.w3.org/2000/svg">
<g clip-path="url(#clip0_84_57)">
<path d="M48.125 55C49.2853 55 50.3981 55.4829 51.2186 56.3424C52.0391 57.202 52.5 58.3678 52.5 59.5833C52.5 60.7989 52.0391 61.9647 51.2186 62.8242C50.3981 63.6838 49.2853 64.1667 48.125 64.1667H35C33.8397 64.1667 32.7269 63.6838 31.9064 62.8242C31.0859 61.9647 30.625 60.7989 30.625 59.5833C30.625 58.3678 31.0859 57.202 31.9064 56.3424C32.7269 55.4829 33.8397 55 35 55H48.125ZM74.375 41.25C74.375 40.0344 73.9141 38.8686 73.0936 38.0091C72.2731 37.1496 71.1603 36.6667 70 36.6667H35C33.8397 36.6667 32.7269 37.1496 31.9064 38.0091C31.0859 38.8686 30.625 40.0344 30.625 41.25C30.625 42.4656 31.0859 43.6314 31.9064 44.4909C32.7269 45.3504 33.8397 45.8333 35 45.8333H70C71.1603 45.8333 72.2731 45.3504 73.0936 44.4909C73.9141 43.6314 74.375 42.4656 74.375 41.25ZM35 27.5H70C71.1603 27.5 72.2731 27.0171 73.0936 26.1576C73.9141 25.298 74.375 24.1322 74.375 22.9167C74.375 21.7011 73.9141 20.5353 73.0936 19.6758C72.2731 18.8162 71.1603 18.3333 70 18.3333H35C33.8397 18.3333 32.7269 18.8162 31.9064 19.6758C31.0859 20.5353 30.625 21.7011 30.625 22.9167C30.625 24.1322 31.0859 25.298 31.9064 26.1576C32.7269 27.0171 33.8397 27.5 35 27.5ZM87.5 89.1183V106.686C87.5003 107.34 87.3155 107.979 86.9689 108.523C86.6223 109.067 86.1295 109.491 85.553 109.741C84.9764 109.991 84.3419 110.057 83.7298 109.929C83.1177 109.801 82.5555 109.486 82.1144 109.024L78.75 105.504L75.3856 109.024C74.9445 109.486 74.3823 109.801 73.7702 109.929C73.1581 110.057 72.5236 109.991 71.947 109.741C71.3705 109.491 70.8777 109.067 70.5311 108.523C70.1845 107.979 69.9997 107.34 70 106.686V89.1183C66.6634 87.11 64.0544 84.0021 62.5792 80.2787C61.1041 76.5554 60.8456 72.4254 61.8441 68.5321C62.8426 64.6388 65.0419 61.2007 68.0997 58.7532C71.1574 56.3056 74.9019 54.9861 78.75 55C80.229 55.0194 81.6994 55.2381 83.125 55.6508V22.9167C83.125 19.2699 81.7422 15.7726 79.2808 13.1939C76.8194 10.6153 73.481 9.16667 70 9.16667H35C31.519 9.16667 28.1806 10.6153 25.7192 13.1939C23.2578 15.7726 21.875 19.2699 21.875 22.9167V77.9167C21.875 81.5634 23.2578 85.0608 25.7192 87.6394C28.1806 90.218 31.519 91.6667 35 91.6667H56.875C58.0353 91.6667 59.1481 92.1495 59.9686 93.0091C60.7891 93.8686 61.25 95.0344 61.25 96.25C61.25 97.4656 60.7891 98.6314 59.9686 99.4909C59.1481 100.35 58.0353 100.833 56.875 100.833H35C29.2005 100.826 23.6406 98.4093 19.5397 94.1132C15.4389 89.817 13.1319 83.9923 13.125 77.9167V22.9167C13.1319 16.841 15.4389 11.0163 19.5397 6.72017C23.6406 2.42404 29.2005 0.00727768 35 0L70 0C75.7995 0.00727768 81.3594 2.42404 85.4603 6.72017C89.5612 11.0163 91.8681 16.841 91.875 22.9167V61.3342C93.5888 63.3504 94.8504 65.7425 95.5676 68.3356C96.2847 70.9286 96.4393 73.6569 96.0198 76.3206C95.6004 78.9843 94.6176 81.516 93.1435 83.7303C91.6693 85.9447 89.7411 87.7856 87.5 89.1183ZM87.5 73.3333C87.5 71.5203 86.9868 69.7481 86.0254 68.2406C85.0639 66.7332 83.6973 65.5582 82.0985 64.8644C80.4996 64.1706 78.7403 63.9891 77.043 64.3428C75.3456 64.6965 73.7865 65.5695 72.5628 66.8515C71.3391 68.1335 70.5058 69.7668 70.1681 71.545C69.8305 73.3232 70.0038 75.1663 70.6661 76.8413C71.3283 78.5163 72.4498 79.9479 73.8888 80.9551C75.3277 81.9624 77.0194 82.5 78.75 82.5C81.0706 82.5 83.2962 81.5342 84.9372 79.8151C86.5781 78.0961 87.5 75.7645 87.5 73.3333Z" fill="black"/>
</g>
<defs>
<clipPath id="clip0_84_57">
<rect width="105" height="110" fill="white"/>
</clipPath>
</defs>
</svg>
