<svg width="120" height="120" viewBox="0 0 120 120" fill="none" xmlns="http://www.w3.org/2000/svg">
<path d="M110.024 35H115.024V85H110.024V100C110.024 102.761 107.785 105 105.024 105H15.0234C12.262 105 10.0234 102.761 10.0234 100V20C10.0234 17.2386 12.262 15 15.0234 15H105.024C107.785 15 110.024 17.2386 110.024 20V35ZM100.024 85H70.0235C56.2165 85 45.0234 73.807 45.0234 60C45.0234 46.1929 56.2165 35 70.0235 35H100.024V25H20.0234V95H100.024V85ZM105.024 75V45H70.0235C61.739 45 55.0235 51.7155 55.0235 60C55.0235 68.2845 61.739 75 70.0235 75H105.024ZM70.0235 55H85.0235V65H70.0235V55Z" fill="black"/>
</svg>
