<svg width="135" height="40" viewBox="0 0 135 40" fill="none" xmlns="http://www.w3.org/2000/svg">
<rect width="135" height="40" rx="20" fill="white"/>
<path d="M21.8759 25.15L21.9659 24.46C22.4159 24.4 22.7209 24.285 22.8809 24.115C23.0509 23.935 23.1359 23.63 23.1359 23.2L23.1509 16.9C23.1509 16.58 23.1159 16.365 23.0459 16.255C22.9759 16.145 22.8259 16.09 22.5959 16.09C22.5359 16.09 22.4559 16.095 22.3559 16.105C22.2559 16.105 22.1659 16.11 22.0859 16.12L22.0559 16.06L22.1609 15.4C22.3309 15.4 22.5359 15.405 22.7759 15.415C23.0159 15.425 23.2659 15.435 23.5259 15.445C23.7859 15.445 24.0259 15.445 24.2459 15.445C25.0459 15.445 25.7159 15.44 26.2559 15.43C26.8059 15.42 27.2759 15.4 27.6659 15.37C28.0559 15.34 28.4159 15.305 28.7459 15.265L28.7909 15.355C28.7409 15.595 28.6909 15.865 28.6409 16.165C28.5909 16.455 28.5509 16.745 28.5209 17.035C28.4909 17.325 28.4659 17.595 28.4459 17.845L27.7259 17.905C27.7359 17.815 27.7409 17.705 27.7409 17.575C27.7509 17.435 27.7559 17.33 27.7559 17.26C27.7559 17.02 27.7309 16.83 27.6809 16.69C27.6409 16.54 27.5459 16.43 27.3959 16.36C27.2559 16.29 27.0309 16.245 26.7209 16.225C26.4109 16.205 25.9909 16.195 25.4609 16.195C25.1409 16.195 24.9059 16.205 24.7559 16.225C24.6059 16.245 24.5109 16.295 24.4709 16.375C24.4409 16.455 24.4209 16.59 24.4109 16.78L24.2609 20.275L24.2009 23.425C24.2009 23.695 24.2259 23.895 24.2759 24.025C24.3259 24.145 24.4309 24.225 24.5909 24.265C24.7609 24.305 25.0259 24.325 25.3859 24.325C25.9759 24.325 26.4509 24.305 26.8109 24.265C27.1709 24.225 27.4459 24.145 27.6359 24.025C27.8259 23.905 27.9659 23.725 28.0559 23.485C28.1459 23.235 28.2209 22.905 28.2809 22.495L28.9409 22.42L28.9859 22.495C28.9159 22.805 28.8409 23.2 28.7609 23.68C28.6909 24.16 28.6309 24.605 28.5809 25.015L28.5059 25.105C27.9059 25.085 27.3059 25.065 26.7059 25.045C26.1159 25.035 25.5809 25.025 25.1009 25.015C24.6209 25.005 24.2409 25 23.9609 25C23.6509 25 23.2959 25.01 22.8959 25.03C22.5059 25.06 22.1659 25.1 21.8759 25.15ZM24.0509 20.59L24.1859 19.69C24.2559 19.69 24.3909 19.69 24.5909 19.69C24.7909 19.69 25.0059 19.695 25.2359 19.705C25.4659 19.705 25.6659 19.705 25.8359 19.705C26.0059 19.705 26.2659 19.69 26.6159 19.66C26.9759 19.62 27.3259 19.58 27.6659 19.54L27.7259 19.615L27.5159 20.5C27.2359 20.49 26.8859 20.48 26.4659 20.47C26.0559 20.46 25.7059 20.455 25.4159 20.455C25.2259 20.455 25.0009 20.47 24.7409 20.5C24.4909 20.52 24.2609 20.55 24.0509 20.59ZM35.3432 25.12L35.2982 25.015L35.3582 24.43C35.7582 24.41 36.0532 24.36 36.2432 24.28C36.4332 24.2 36.5282 24.075 36.5282 23.905C36.5282 23.815 36.5032 23.72 36.4532 23.62C36.4032 23.51 36.3282 23.385 36.2282 23.245L34.5932 20.785L33.2132 22.615C32.9232 23.005 32.7232 23.29 32.6132 23.47C32.5032 23.65 32.4482 23.81 32.4482 23.95C32.4482 24.21 32.7382 24.36 33.3182 24.4L33.3482 24.46L33.2432 25.105C33.2432 25.105 33.1832 25.1 33.0632 25.09C32.9532 25.08 32.8082 25.065 32.6282 25.045C32.4482 25.035 32.2632 25.025 32.0732 25.015C31.8932 25.005 31.7332 25 31.5932 25C31.4432 25 31.2832 25 31.1132 25C30.9432 25.01 30.7832 25.02 30.6332 25.03C30.4832 25.04 30.3582 25.045 30.2582 25.045C30.1582 25.055 30.1082 25.06 30.1082 25.06L30.0482 24.955L30.1532 24.34C30.4532 24.25 30.7282 24.115 30.9782 23.935C31.2382 23.755 31.4932 23.525 31.7432 23.245C32.0032 22.965 32.2832 22.64 32.5832 22.27L34.2332 20.23L32.2682 17.29C32.1082 17.04 31.9232 16.83 31.7132 16.66C31.5132 16.49 31.2882 16.355 31.0382 16.255C30.7982 16.155 30.5232 16.085 30.2132 16.045L30.1832 15.985L30.2732 15.4C30.2732 15.4 30.3482 15.405 30.4982 15.415C30.6582 15.415 30.8532 15.42 31.0832 15.43C31.3232 15.43 31.5632 15.435 31.8032 15.445C32.0532 15.445 32.2632 15.445 32.4332 15.445C32.7332 15.445 33.0032 15.44 33.2432 15.43C33.4932 15.42 33.7082 15.405 33.8882 15.385C34.0682 15.365 34.2082 15.35 34.3082 15.34C34.4082 15.33 34.4582 15.325 34.4582 15.325L34.5032 15.43L34.4582 15.955C34.0482 15.985 33.7482 16.04 33.5582 16.12C33.3782 16.2 33.2882 16.325 33.2882 16.495C33.2882 16.615 33.4432 16.93 33.7532 17.44C34.0732 17.94 34.4832 18.575 34.9832 19.345C35.1532 19.115 35.3482 18.855 35.5682 18.565C35.7882 18.275 36.0032 17.99 36.2132 17.71C36.4232 17.42 36.5982 17.16 36.7382 16.93C36.8782 16.7 36.9482 16.535 36.9482 16.435C36.9482 16.295 36.8782 16.195 36.7382 16.135C36.6082 16.065 36.3882 16.015 36.0782 15.985L36.0482 15.925L36.1382 15.34C36.1382 15.34 36.2382 15.35 36.4382 15.37C36.6382 15.38 36.8632 15.395 37.1132 15.415C37.3732 15.435 37.5982 15.445 37.7882 15.445C37.9882 15.445 38.1982 15.44 38.4182 15.43C38.6482 15.42 38.8432 15.41 39.0032 15.4C39.1632 15.39 39.2432 15.385 39.2432 15.385L39.3032 15.49L39.2132 16.045C38.9132 16.105 38.6632 16.19 38.4632 16.3C38.2632 16.41 38.0682 16.57 37.8782 16.78C37.6882 16.98 37.4532 17.255 37.1732 17.605L35.3582 19.9L37.5482 23.095C37.8182 23.485 38.1082 23.78 38.4182 23.98C38.7382 24.17 39.1332 24.29 39.6032 24.34L39.6332 24.4L39.5282 25.045C39.5282 25.045 39.4632 25.04 39.3332 25.03C39.2132 25.03 39.0532 25.025 38.8532 25.015C38.6632 25.015 38.4582 25.01 38.2382 25C38.0282 25 37.8382 25 37.6682 25C37.4982 25 37.3082 25.005 37.0982 25.015C36.8982 25.025 36.6932 25.035 36.4832 25.045C36.2832 25.055 36.0932 25.065 35.9132 25.075C35.7432 25.085 35.6032 25.095 35.4932 25.105C35.3932 25.115 35.3432 25.12 35.3432 25.12ZM40.6569 25.12L40.7619 24.43C41.2019 24.35 41.4919 24.235 41.6319 24.085C41.7719 23.925 41.8419 23.63 41.8419 23.2L41.8569 16.9C41.8569 16.58 41.8169 16.365 41.7369 16.255C41.6669 16.145 41.5219 16.09 41.3019 16.09C41.2119 16.09 41.1019 16.095 40.9719 16.105C40.8519 16.115 40.7919 16.12 40.7919 16.12L40.7619 16.06L40.8669 15.4C40.8669 15.4 40.9669 15.405 41.1669 15.415C41.3669 15.425 41.5969 15.435 41.8569 15.445C42.1169 15.445 42.3419 15.445 42.5319 15.445C42.6319 15.445 42.7819 15.445 42.9819 15.445C43.1919 15.435 43.4069 15.425 43.6269 15.415C43.8469 15.405 44.0319 15.4 44.1819 15.4C44.3419 15.39 44.4219 15.385 44.4219 15.385C44.9419 15.385 45.3969 15.445 45.7869 15.565C46.1869 15.675 46.5219 15.845 46.7919 16.075C47.0719 16.305 47.2819 16.585 47.4219 16.915C47.5619 17.245 47.6319 17.625 47.6319 18.055C47.6319 18.485 47.5369 18.895 47.3469 19.285C47.1569 19.675 46.9019 20.025 46.5819 20.335C46.2619 20.645 45.8969 20.89 45.4869 21.07C45.0769 21.25 44.6469 21.34 44.1969 21.34H42.9369L42.9069 22.81C42.9069 23.26 42.9219 23.595 42.9519 23.815C42.9819 24.035 43.0419 24.18 43.1319 24.25C43.2319 24.31 43.3769 24.34 43.5669 24.34C43.7169 24.34 43.8869 24.335 44.0769 24.325C44.2769 24.305 44.3769 24.295 44.3769 24.295L44.4069 24.355L44.2719 25.045C44.2719 25.045 44.2219 25.04 44.1219 25.03C44.0319 25.03 43.9119 25.025 43.7619 25.015C43.6219 25.015 43.4719 25.01 43.3119 25C43.1619 25 43.0219 25 42.8919 25C42.6919 25 42.4619 25.005 42.2019 25.015C41.9519 25.025 41.7119 25.035 41.4819 25.045C41.2519 25.055 41.0569 25.065 40.8969 25.075C40.7469 25.095 40.6669 25.11 40.6569 25.12ZM44.5569 20.68C45.7669 20.48 46.3719 19.7 46.3719 18.34C46.3719 17.57 46.1469 17.01 45.6969 16.66C45.2469 16.3 44.5319 16.12 43.5519 16.12C43.3719 16.12 43.2619 16.13 43.2219 16.15C43.1819 16.16 43.1569 16.22 43.1469 16.33C43.1069 17 43.0719 17.695 43.0419 18.415C43.0119 19.125 42.9869 19.805 42.9669 20.455L44.5569 20.68ZM48.9936 25.15L49.0836 24.46C49.4736 24.4 49.7386 24.285 49.8786 24.115C50.0286 23.935 50.1036 23.63 50.1036 23.2L50.1186 16.9C50.1186 16.58 50.0836 16.365 50.0136 16.255C49.9436 16.145 49.7936 16.09 49.5636 16.09C49.4736 16.09 49.3636 16.095 49.2336 16.105C49.1136 16.115 49.0536 16.12 49.0536 16.12L49.0236 16.06L49.1286 15.4C49.1286 15.4 49.2286 15.405 49.4286 15.415C49.6286 15.425 49.8586 15.435 50.1186 15.445C50.3886 15.445 50.6186 15.445 50.8086 15.445C50.9686 15.445 51.1386 15.44 51.3186 15.43C51.5086 15.41 51.6836 15.395 51.8436 15.385C52.0136 15.365 52.1486 15.35 52.2486 15.34C52.3586 15.32 52.4136 15.31 52.4136 15.31L52.3536 15.985C52.0236 16.025 51.7936 16.09 51.6636 16.18C51.5336 16.27 51.4586 16.41 51.4386 16.6C51.4186 16.78 51.3936 17.04 51.3636 17.38C51.3236 18 51.2886 18.675 51.2586 19.405C51.2286 20.125 51.2086 20.82 51.1986 21.49C51.1886 22.15 51.1836 22.71 51.1836 23.17C51.1836 23.51 51.2086 23.765 51.2586 23.935C51.3186 24.095 51.4386 24.2 51.6186 24.25C51.8086 24.3 52.0886 24.325 52.4586 24.325C52.8986 24.325 53.2536 24.3 53.5236 24.25C53.7936 24.2 54.0086 24.1 54.1686 23.95C54.3386 23.8 54.4736 23.585 54.5736 23.305C54.6736 23.025 54.7636 22.655 54.8436 22.195L55.5036 22.12L55.5486 22.195C55.5486 22.195 55.5236 22.33 55.4736 22.6C55.4236 22.87 55.3636 23.22 55.2936 23.65C55.2336 24.08 55.1736 24.545 55.1136 25.045L55.0386 25.135C55.0386 25.135 54.8986 25.125 54.6186 25.105C54.3386 25.095 53.9836 25.08 53.5536 25.06C53.1236 25.05 52.6786 25.035 52.2186 25.015C51.7686 25.005 51.3636 25 51.0036 25C50.6336 25 50.2936 25.01 49.9836 25.03C49.6836 25.06 49.4436 25.085 49.2636 25.105C49.0836 25.135 48.9936 25.15 48.9936 25.15ZM60.3312 25.18C59.5112 25.18 58.7862 24.985 58.1562 24.595C57.5362 24.205 57.0512 23.66 56.7012 22.96C56.3512 22.26 56.1762 21.455 56.1762 20.545C56.1762 19.805 56.3012 19.115 56.5512 18.475C56.8012 17.835 57.1512 17.275 57.6012 16.795C58.0512 16.315 58.5762 15.94 59.1762 15.67C59.7762 15.4 60.4212 15.265 61.1112 15.265C61.9512 15.265 62.6862 15.46 63.3162 15.85C63.9562 16.24 64.4562 16.785 64.8162 17.485C65.1762 18.175 65.3562 18.975 65.3562 19.885C65.3562 20.635 65.2262 21.33 64.9662 21.97C64.7162 22.61 64.3612 23.17 63.9012 23.65C63.4512 24.13 62.9212 24.505 62.3112 24.775C61.7012 25.045 61.0412 25.18 60.3312 25.18ZM60.7962 24.415C61.4362 24.415 61.9962 24.25 62.4762 23.92C62.9562 23.59 63.3312 23.135 63.6012 22.555C63.8812 21.965 64.0212 21.285 64.0212 20.515C64.0212 19.655 63.8762 18.9 63.5862 18.25C63.2962 17.6 62.8962 17.09 62.3862 16.72C61.8762 16.35 61.2812 16.165 60.6012 16.165C59.9812 16.165 59.4362 16.33 58.9662 16.66C58.4962 16.99 58.1262 17.45 57.8562 18.04C57.5962 18.62 57.4662 19.295 57.4662 20.065C57.4662 20.915 57.6062 21.67 57.8862 22.33C58.1662 22.98 58.5562 23.49 59.0562 23.86C59.5662 24.23 60.1462 24.415 60.7962 24.415ZM73.6419 25.24C73.3919 25.24 73.1219 25.11 72.8319 24.85C72.5519 24.59 72.2919 24.245 72.0519 23.815L70.4469 20.905H69.2019L69.1569 23.14C69.1569 23.5 69.1769 23.77 69.2169 23.95C69.2669 24.12 69.3669 24.235 69.5169 24.295C69.6769 24.345 69.9169 24.37 70.2369 24.37L70.2669 24.43L70.1319 25.06C70.1319 25.06 70.0819 25.055 69.9819 25.045C69.8819 25.045 69.7519 25.04 69.5919 25.03C69.4419 25.03 69.2719 25.025 69.0819 25.015C68.9019 25.015 68.7219 25.015 68.5419 25.015C68.2919 25.005 68.0319 25.005 67.7619 25.015C67.5019 25.025 67.2769 25.035 67.0869 25.045C66.9069 25.055 66.8169 25.06 66.8169 25.06L66.9519 24.385C67.4219 24.335 67.7269 24.235 67.8669 24.085C68.0169 23.925 68.0919 23.63 68.0919 23.2L68.1069 16.9C68.1069 16.58 68.0669 16.365 67.9869 16.255C67.9169 16.145 67.7719 16.09 67.5519 16.09C67.4619 16.09 67.3519 16.095 67.2219 16.105C67.1019 16.115 67.0419 16.12 67.0419 16.12L67.0119 16.06L67.1169 15.4C67.1169 15.4 67.1719 15.405 67.2819 15.415C67.4019 15.415 67.5519 15.42 67.7319 15.43C67.9119 15.43 68.0969 15.435 68.2869 15.445C68.4769 15.445 68.6419 15.445 68.7819 15.445C68.9119 15.445 69.0769 15.445 69.2769 15.445C69.4869 15.435 69.6919 15.425 69.8919 15.415C70.1019 15.405 70.2769 15.4 70.4169 15.4C70.5569 15.39 70.6269 15.385 70.6269 15.385C71.5569 15.385 72.2919 15.595 72.8319 16.015C73.3719 16.435 73.6419 17.01 73.6419 17.74C73.6419 18.34 73.4469 18.89 73.0569 19.39C72.6769 19.89 72.1369 20.3 71.4369 20.62L73.0869 23.23C73.3769 23.7 73.6569 24.03 73.9269 24.22C74.2069 24.41 74.5469 24.505 74.9469 24.505L75.0069 24.565L74.9169 25.075L73.6419 25.24ZM70.7769 20.215C70.7769 20.215 70.8569 20.185 71.0169 20.125C71.1869 20.055 71.3769 19.94 71.5869 19.78C71.7969 19.62 71.9819 19.395 72.1419 19.105C72.3119 18.815 72.3969 18.45 72.3969 18.01C72.3969 17.35 72.1669 16.855 71.7069 16.525C71.2569 16.195 70.5719 16.03 69.6519 16.03C69.5519 16.03 69.4819 16.055 69.4419 16.105C69.4119 16.145 69.3919 16.235 69.3819 16.375C69.3419 17.165 69.3069 17.845 69.2769 18.415C69.2569 18.985 69.2419 19.535 69.2319 20.065L70.7769 20.215ZM76.0018 25.15L76.0918 24.46C76.5418 24.4 76.8468 24.285 77.0068 24.115C77.1768 23.935 77.2618 23.63 77.2618 23.2L77.2768 16.9C77.2768 16.58 77.2418 16.365 77.1718 16.255C77.1018 16.145 76.9518 16.09 76.7218 16.09C76.6618 16.09 76.5818 16.095 76.4818 16.105C76.3818 16.105 76.2918 16.11 76.2118 16.12L76.1818 16.06L76.2868 15.4C76.4568 15.4 76.6618 15.405 76.9018 15.415C77.1418 15.425 77.3918 15.435 77.6518 15.445C77.9118 15.445 78.1518 15.445 78.3718 15.445C79.1718 15.445 79.8418 15.44 80.3818 15.43C80.9318 15.42 81.4018 15.4 81.7918 15.37C82.1818 15.34 82.5418 15.305 82.8718 15.265L82.9168 15.355C82.8668 15.595 82.8168 15.865 82.7668 16.165C82.7168 16.455 82.6768 16.745 82.6468 17.035C82.6168 17.325 82.5918 17.595 82.5718 17.845L81.8518 17.905C81.8618 17.815 81.8668 17.705 81.8668 17.575C81.8768 17.435 81.8818 17.33 81.8818 17.26C81.8818 17.02 81.8568 16.83 81.8068 16.69C81.7668 16.54 81.6718 16.43 81.5218 16.36C81.3818 16.29 81.1568 16.245 80.8468 16.225C80.5368 16.205 80.1168 16.195 79.5868 16.195C79.2668 16.195 79.0318 16.205 78.8818 16.225C78.7318 16.245 78.6368 16.295 78.5968 16.375C78.5668 16.455 78.5468 16.59 78.5368 16.78L78.3868 20.275L78.3268 23.425C78.3268 23.695 78.3518 23.895 78.4018 24.025C78.4518 24.145 78.5568 24.225 78.7168 24.265C78.8868 24.305 79.1518 24.325 79.5118 24.325C80.1018 24.325 80.5768 24.305 80.9368 24.265C81.2968 24.225 81.5718 24.145 81.7618 24.025C81.9518 23.905 82.0918 23.725 82.1818 23.485C82.2718 23.235 82.3468 22.905 82.4068 22.495L83.0668 22.42L83.1118 22.495C83.0418 22.805 82.9668 23.2 82.8868 23.68C82.8168 24.16 82.7568 24.605 82.7068 25.015L82.6318 25.105C82.0318 25.085 81.4318 25.065 80.8318 25.045C80.2418 25.035 79.7068 25.025 79.2268 25.015C78.7468 25.005 78.3668 25 78.0868 25C77.7768 25 77.4218 25.01 77.0218 25.03C76.6318 25.06 76.2918 25.1 76.0018 25.15ZM78.1768 20.59L78.3118 19.69C78.3818 19.69 78.5168 19.69 78.7168 19.69C78.9168 19.69 79.1318 19.695 79.3618 19.705C79.5918 19.705 79.7918 19.705 79.9618 19.705C80.1318 19.705 80.3918 19.69 80.7418 19.66C81.1018 19.62 81.4518 19.58 81.7918 19.54L81.8518 19.615L81.6418 20.5C81.3618 20.49 81.0118 20.48 80.5918 20.47C80.1818 20.46 79.8318 20.455 79.5418 20.455C79.3518 20.455 79.1268 20.47 78.8668 20.5C78.6168 20.52 78.3868 20.55 78.1768 20.59Z" fill="black"/>
<path d="M21.8759 25.15L21.9659 24.46C22.4159 24.4 22.7209 24.285 22.8809 24.115C23.0509 23.935 23.1359 23.63 23.1359 23.2L23.1509 16.9C23.1509 16.58 23.1159 16.365 23.0459 16.255C22.9759 16.145 22.8259 16.09 22.5959 16.09C22.5359 16.09 22.4559 16.095 22.3559 16.105C22.2559 16.105 22.1659 16.11 22.0859 16.12L22.0559 16.06L22.1609 15.4C22.3309 15.4 22.5359 15.405 22.7759 15.415C23.0159 15.425 23.2659 15.435 23.5259 15.445C23.7859 15.445 24.0259 15.445 24.2459 15.445C25.0459 15.445 25.7159 15.44 26.2559 15.43C26.8059 15.42 27.2759 15.4 27.6659 15.37C28.0559 15.34 28.4159 15.305 28.7459 15.265L28.7909 15.355C28.7409 15.595 28.6909 15.865 28.6409 16.165C28.5909 16.455 28.5509 16.745 28.5209 17.035C28.4909 17.325 28.4659 17.595 28.4459 17.845L27.7259 17.905C27.7359 17.815 27.7409 17.705 27.7409 17.575C27.7509 17.435 27.7559 17.33 27.7559 17.26C27.7559 17.02 27.7309 16.83 27.6809 16.69C27.6409 16.54 27.5459 16.43 27.3959 16.36C27.2559 16.29 27.0309 16.245 26.7209 16.225C26.4109 16.205 25.9909 16.195 25.4609 16.195C25.1409 16.195 24.9059 16.205 24.7559 16.225C24.6059 16.245 24.5109 16.295 24.4709 16.375C24.4409 16.455 24.4209 16.59 24.4109 16.78L24.2609 20.275L24.2009 23.425C24.2009 23.695 24.2259 23.895 24.2759 24.025C24.3259 24.145 24.4309 24.225 24.5909 24.265C24.7609 24.305 25.0259 24.325 25.3859 24.325C25.9759 24.325 26.4509 24.305 26.8109 24.265C27.1709 24.225 27.4459 24.145 27.6359 24.025C27.8259 23.905 27.9659 23.725 28.0559 23.485C28.1459 23.235 28.2209 22.905 28.2809 22.495L28.9409 22.42L28.9859 22.495C28.9159 22.805 28.8409 23.2 28.7609 23.68C28.6909 24.16 28.6309 24.605 28.5809 25.015L28.5059 25.105C27.9059 25.085 27.3059 25.065 26.7059 25.045C26.1159 25.035 25.5809 25.025 25.1009 25.015C24.6209 25.005 24.2409 25 23.9609 25C23.6509 25 23.2959 25.01 22.8959 25.03C22.5059 25.06 22.1659 25.1 21.8759 25.15ZM24.0509 20.59L24.1859 19.69C24.2559 19.69 24.3909 19.69 24.5909 19.69C24.7909 19.69 25.0059 19.695 25.2359 19.705C25.4659 19.705 25.6659 19.705 25.8359 19.705C26.0059 19.705 26.2659 19.69 26.6159 19.66C26.9759 19.62 27.3259 19.58 27.6659 19.54L27.7259 19.615L27.5159 20.5C27.2359 20.49 26.8859 20.48 26.4659 20.47C26.0559 20.46 25.7059 20.455 25.4159 20.455C25.2259 20.455 25.0009 20.47 24.7409 20.5C24.4909 20.52 24.2609 20.55 24.0509 20.59ZM35.3432 25.12L35.2982 25.015L35.3582 24.43C35.7582 24.41 36.0532 24.36 36.2432 24.28C36.4332 24.2 36.5282 24.075 36.5282 23.905C36.5282 23.815 36.5032 23.72 36.4532 23.62C36.4032 23.51 36.3282 23.385 36.2282 23.245L34.5932 20.785L33.2132 22.615C32.9232 23.005 32.7232 23.29 32.6132 23.47C32.5032 23.65 32.4482 23.81 32.4482 23.95C32.4482 24.21 32.7382 24.36 33.3182 24.4L33.3482 24.46L33.2432 25.105C33.2432 25.105 33.1832 25.1 33.0632 25.09C32.9532 25.08 32.8082 25.065 32.6282 25.045C32.4482 25.035 32.2632 25.025 32.0732 25.015C31.8932 25.005 31.7332 25 31.5932 25C31.4432 25 31.2832 25 31.1132 25C30.9432 25.01 30.7832 25.02 30.6332 25.03C30.4832 25.04 30.3582 25.045 30.2582 25.045C30.1582 25.055 30.1082 25.06 30.1082 25.06L30.0482 24.955L30.1532 24.34C30.4532 24.25 30.7282 24.115 30.9782 23.935C31.2382 23.755 31.4932 23.525 31.7432 23.245C32.0032 22.965 32.2832 22.64 32.5832 22.27L34.2332 20.23L32.2682 17.29C32.1082 17.04 31.9232 16.83 31.7132 16.66C31.5132 16.49 31.2882 16.355 31.0382 16.255C30.7982 16.155 30.5232 16.085 30.2132 16.045L30.1832 15.985L30.2732 15.4C30.2732 15.4 30.3482 15.405 30.4982 15.415C30.6582 15.415 30.8532 15.42 31.0832 15.43C31.3232 15.43 31.5632 15.435 31.8032 15.445C32.0532 15.445 32.2632 15.445 32.4332 15.445C32.7332 15.445 33.0032 15.44 33.2432 15.43C33.4932 15.42 33.7082 15.405 33.8882 15.385C34.0682 15.365 34.2082 15.35 34.3082 15.34C34.4082 15.33 34.4582 15.325 34.4582 15.325L34.5032 15.43L34.4582 15.955C34.0482 15.985 33.7482 16.04 33.5582 16.12C33.3782 16.2 33.2882 16.325 33.2882 16.495C33.2882 16.615 33.4432 16.93 33.7532 17.44C34.0732 17.94 34.4832 18.575 34.9832 19.345C35.1532 19.115 35.3482 18.855 35.5682 18.565C35.7882 18.275 36.0032 17.99 36.2132 17.71C36.4232 17.42 36.5982 17.16 36.7382 16.93C36.8782 16.7 36.9482 16.535 36.9482 16.435C36.9482 16.295 36.8782 16.195 36.7382 16.135C36.6082 16.065 36.3882 16.015 36.0782 15.985L36.0482 15.925L36.1382 15.34C36.1382 15.34 36.2382 15.35 36.4382 15.37C36.6382 15.38 36.8632 15.395 37.1132 15.415C37.3732 15.435 37.5982 15.445 37.7882 15.445C37.9882 15.445 38.1982 15.44 38.4182 15.43C38.6482 15.42 38.8432 15.41 39.0032 15.4C39.1632 15.39 39.2432 15.385 39.2432 15.385L39.3032 15.49L39.2132 16.045C38.9132 16.105 38.6632 16.19 38.4632 16.3C38.2632 16.41 38.0682 16.57 37.8782 16.78C37.6882 16.98 37.4532 17.255 37.1732 17.605L35.3582 19.9L37.5482 23.095C37.8182 23.485 38.1082 23.78 38.4182 23.98C38.7382 24.17 39.1332 24.29 39.6032 24.34L39.6332 24.4L39.5282 25.045C39.5282 25.045 39.4632 25.04 39.3332 25.03C39.2132 25.03 39.0532 25.025 38.8532 25.015C38.6632 25.015 38.4582 25.01 38.2382 25C38.0282 25 37.8382 25 37.6682 25C37.4982 25 37.3082 25.005 37.0982 25.015C36.8982 25.025 36.6932 25.035 36.4832 25.045C36.2832 25.055 36.0932 25.065 35.9132 25.075C35.7432 25.085 35.6032 25.095 35.4932 25.105C35.3932 25.115 35.3432 25.12 35.3432 25.12ZM40.6569 25.12L40.7619 24.43C41.2019 24.35 41.4919 24.235 41.6319 24.085C41.7719 23.925 41.8419 23.63 41.8419 23.2L41.8569 16.9C41.8569 16.58 41.8169 16.365 41.7369 16.255C41.6669 16.145 41.5219 16.09 41.3019 16.09C41.2119 16.09 41.1019 16.095 40.9719 16.105C40.8519 16.115 40.7919 16.12 40.7919 16.12L40.7619 16.06L40.8669 15.4C40.8669 15.4 40.9669 15.405 41.1669 15.415C41.3669 15.425 41.5969 15.435 41.8569 15.445C42.1169 15.445 42.3419 15.445 42.5319 15.445C42.6319 15.445 42.7819 15.445 42.9819 15.445C43.1919 15.435 43.4069 15.425 43.6269 15.415C43.8469 15.405 44.0319 15.4 44.1819 15.4C44.3419 15.39 44.4219 15.385 44.4219 15.385C44.9419 15.385 45.3969 15.445 45.7869 15.565C46.1869 15.675 46.5219 15.845 46.7919 16.075C47.0719 16.305 47.2819 16.585 47.4219 16.915C47.5619 17.245 47.6319 17.625 47.6319 18.055C47.6319 18.485 47.5369 18.895 47.3469 19.285C47.1569 19.675 46.9019 20.025 46.5819 20.335C46.2619 20.645 45.8969 20.89 45.4869 21.07C45.0769 21.25 44.6469 21.34 44.1969 21.34H42.9369L42.9069 22.81C42.9069 23.26 42.9219 23.595 42.9519 23.815C42.9819 24.035 43.0419 24.18 43.1319 24.25C43.2319 24.31 43.3769 24.34 43.5669 24.34C43.7169 24.34 43.8869 24.335 44.0769 24.325C44.2769 24.305 44.3769 24.295 44.3769 24.295L44.4069 24.355L44.2719 25.045C44.2719 25.045 44.2219 25.04 44.1219 25.03C44.0319 25.03 43.9119 25.025 43.7619 25.015C43.6219 25.015 43.4719 25.01 43.3119 25C43.1619 25 43.0219 25 42.8919 25C42.6919 25 42.4619 25.005 42.2019 25.015C41.9519 25.025 41.7119 25.035 41.4819 25.045C41.2519 25.055 41.0569 25.065 40.8969 25.075C40.7469 25.095 40.6669 25.11 40.6569 25.12ZM44.5569 20.68C45.7669 20.48 46.3719 19.7 46.3719 18.34C46.3719 17.57 46.1469 17.01 45.6969 16.66C45.2469 16.3 44.5319 16.12 43.5519 16.12C43.3719 16.12 43.2619 16.13 43.2219 16.15C43.1819 16.16 43.1569 16.22 43.1469 16.33C43.1069 17 43.0719 17.695 43.0419 18.415C43.0119 19.125 42.9869 19.805 42.9669 20.455L44.5569 20.68ZM48.9936 25.15L49.0836 24.46C49.4736 24.4 49.7386 24.285 49.8786 24.115C50.0286 23.935 50.1036 23.63 50.1036 23.2L50.1186 16.9C50.1186 16.58 50.0836 16.365 50.0136 16.255C49.9436 16.145 49.7936 16.09 49.5636 16.09C49.4736 16.09 49.3636 16.095 49.2336 16.105C49.1136 16.115 49.0536 16.12 49.0536 16.12L49.0236 16.06L49.1286 15.4C49.1286 15.4 49.2286 15.405 49.4286 15.415C49.6286 15.425 49.8586 15.435 50.1186 15.445C50.3886 15.445 50.6186 15.445 50.8086 15.445C50.9686 15.445 51.1386 15.44 51.3186 15.43C51.5086 15.41 51.6836 15.395 51.8436 15.385C52.0136 15.365 52.1486 15.35 52.2486 15.34C52.3586 15.32 52.4136 15.31 52.4136 15.31L52.3536 15.985C52.0236 16.025 51.7936 16.09 51.6636 16.18C51.5336 16.27 51.4586 16.41 51.4386 16.6C51.4186 16.78 51.3936 17.04 51.3636 17.38C51.3236 18 51.2886 18.675 51.2586 19.405C51.2286 20.125 51.2086 20.82 51.1986 21.49C51.1886 22.15 51.1836 22.71 51.1836 23.17C51.1836 23.51 51.2086 23.765 51.2586 23.935C51.3186 24.095 51.4386 24.2 51.6186 24.25C51.8086 24.3 52.0886 24.325 52.4586 24.325C52.8986 24.325 53.2536 24.3 53.5236 24.25C53.7936 24.2 54.0086 24.1 54.1686 23.95C54.3386 23.8 54.4736 23.585 54.5736 23.305C54.6736 23.025 54.7636 22.655 54.8436 22.195L55.5036 22.12L55.5486 22.195C55.5486 22.195 55.5236 22.33 55.4736 22.6C55.4236 22.87 55.3636 23.22 55.2936 23.65C55.2336 24.08 55.1736 24.545 55.1136 25.045L55.0386 25.135C55.0386 25.135 54.8986 25.125 54.6186 25.105C54.3386 25.095 53.9836 25.08 53.5536 25.06C53.1236 25.05 52.6786 25.035 52.2186 25.015C51.7686 25.005 51.3636 25 51.0036 25C50.6336 25 50.2936 25.01 49.9836 25.03C49.6836 25.06 49.4436 25.085 49.2636 25.105C49.0836 25.135 48.9936 25.15 48.9936 25.15ZM60.3312 25.18C59.5112 25.18 58.7862 24.985 58.1562 24.595C57.5362 24.205 57.0512 23.66 56.7012 22.96C56.3512 22.26 56.1762 21.455 56.1762 20.545C56.1762 19.805 56.3012 19.115 56.5512 18.475C56.8012 17.835 57.1512 17.275 57.6012 16.795C58.0512 16.315 58.5762 15.94 59.1762 15.67C59.7762 15.4 60.4212 15.265 61.1112 15.265C61.9512 15.265 62.6862 15.46 63.3162 15.85C63.9562 16.24 64.4562 16.785 64.8162 17.485C65.1762 18.175 65.3562 18.975 65.3562 19.885C65.3562 20.635 65.2262 21.33 64.9662 21.97C64.7162 22.61 64.3612 23.17 63.9012 23.65C63.4512 24.13 62.9212 24.505 62.3112 24.775C61.7012 25.045 61.0412 25.18 60.3312 25.18ZM60.7962 24.415C61.4362 24.415 61.9962 24.25 62.4762 23.92C62.9562 23.59 63.3312 23.135 63.6012 22.555C63.8812 21.965 64.0212 21.285 64.0212 20.515C64.0212 19.655 63.8762 18.9 63.5862 18.25C63.2962 17.6 62.8962 17.09 62.3862 16.72C61.8762 16.35 61.2812 16.165 60.6012 16.165C59.9812 16.165 59.4362 16.33 58.9662 16.66C58.4962 16.99 58.1262 17.45 57.8562 18.04C57.5962 18.62 57.4662 19.295 57.4662 20.065C57.4662 20.915 57.6062 21.67 57.8862 22.33C58.1662 22.98 58.5562 23.49 59.0562 23.86C59.5662 24.23 60.1462 24.415 60.7962 24.415ZM73.6419 25.24C73.3919 25.24 73.1219 25.11 72.8319 24.85C72.5519 24.59 72.2919 24.245 72.0519 23.815L70.4469 20.905H69.2019L69.1569 23.14C69.1569 23.5 69.1769 23.77 69.2169 23.95C69.2669 24.12 69.3669 24.235 69.5169 24.295C69.6769 24.345 69.9169 24.37 70.2369 24.37L70.2669 24.43L70.1319 25.06C70.1319 25.06 70.0819 25.055 69.9819 25.045C69.8819 25.045 69.7519 25.04 69.5919 25.03C69.4419 25.03 69.2719 25.025 69.0819 25.015C68.9019 25.015 68.7219 25.015 68.5419 25.015C68.2919 25.005 68.0319 25.005 67.7619 25.015C67.5019 25.025 67.2769 25.035 67.0869 25.045C66.9069 25.055 66.8169 25.06 66.8169 25.06L66.9519 24.385C67.4219 24.335 67.7269 24.235 67.8669 24.085C68.0169 23.925 68.0919 23.63 68.0919 23.2L68.1069 16.9C68.1069 16.58 68.0669 16.365 67.9869 16.255C67.9169 16.145 67.7719 16.09 67.5519 16.09C67.4619 16.09 67.3519 16.095 67.2219 16.105C67.1019 16.115 67.0419 16.12 67.0419 16.12L67.0119 16.06L67.1169 15.4C67.1169 15.4 67.1719 15.405 67.2819 15.415C67.4019 15.415 67.5519 15.42 67.7319 15.43C67.9119 15.43 68.0969 15.435 68.2869 15.445C68.4769 15.445 68.6419 15.445 68.7819 15.445C68.9119 15.445 69.0769 15.445 69.2769 15.445C69.4869 15.435 69.6919 15.425 69.8919 15.415C70.1019 15.405 70.2769 15.4 70.4169 15.4C70.5569 15.39 70.6269 15.385 70.6269 15.385C71.5569 15.385 72.2919 15.595 72.8319 16.015C73.3719 16.435 73.6419 17.01 73.6419 17.74C73.6419 18.34 73.4469 18.89 73.0569 19.39C72.6769 19.89 72.1369 20.3 71.4369 20.62L73.0869 23.23C73.3769 23.7 73.6569 24.03 73.9269 24.22C74.2069 24.41 74.5469 24.505 74.9469 24.505L75.0069 24.565L74.9169 25.075L73.6419 25.24ZM70.7769 20.215C70.7769 20.215 70.8569 20.185 71.0169 20.125C71.1869 20.055 71.3769 19.94 71.5869 19.78C71.7969 19.62 71.9819 19.395 72.1419 19.105C72.3119 18.815 72.3969 18.45 72.3969 18.01C72.3969 17.35 72.1669 16.855 71.7069 16.525C71.2569 16.195 70.5719 16.03 69.6519 16.03C69.5519 16.03 69.4819 16.055 69.4419 16.105C69.4119 16.145 69.3919 16.235 69.3819 16.375C69.3419 17.165 69.3069 17.845 69.2769 18.415C69.2569 18.985 69.2419 19.535 69.2319 20.065L70.7769 20.215ZM76.0018 25.15L76.0918 24.46C76.5418 24.4 76.8468 24.285 77.0068 24.115C77.1768 23.935 77.2618 23.63 77.2618 23.2L77.2768 16.9C77.2768 16.58 77.2418 16.365 77.1718 16.255C77.1018 16.145 76.9518 16.09 76.7218 16.09C76.6618 16.09 76.5818 16.095 76.4818 16.105C76.3818 16.105 76.2918 16.11 76.2118 16.12L76.1818 16.06L76.2868 15.4C76.4568 15.4 76.6618 15.405 76.9018 15.415C77.1418 15.425 77.3918 15.435 77.6518 15.445C77.9118 15.445 78.1518 15.445 78.3718 15.445C79.1718 15.445 79.8418 15.44 80.3818 15.43C80.9318 15.42 81.4018 15.4 81.7918 15.37C82.1818 15.34 82.5418 15.305 82.8718 15.265L82.9168 15.355C82.8668 15.595 82.8168 15.865 82.7668 16.165C82.7168 16.455 82.6768 16.745 82.6468 17.035C82.6168 17.325 82.5918 17.595 82.5718 17.845L81.8518 17.905C81.8618 17.815 81.8668 17.705 81.8668 17.575C81.8768 17.435 81.8818 17.33 81.8818 17.26C81.8818 17.02 81.8568 16.83 81.8068 16.69C81.7668 16.54 81.6718 16.43 81.5218 16.36C81.3818 16.29 81.1568 16.245 80.8468 16.225C80.5368 16.205 80.1168 16.195 79.5868 16.195C79.2668 16.195 79.0318 16.205 78.8818 16.225C78.7318 16.245 78.6368 16.295 78.5968 16.375C78.5668 16.455 78.5468 16.59 78.5368 16.78L78.3868 20.275L78.3268 23.425C78.3268 23.695 78.3518 23.895 78.4018 24.025C78.4518 24.145 78.5568 24.225 78.7168 24.265C78.8868 24.305 79.1518 24.325 79.5118 24.325C80.1018 24.325 80.5768 24.305 80.9368 24.265C81.2968 24.225 81.5718 24.145 81.7618 24.025C81.9518 23.905 82.0918 23.725 82.1818 23.485C82.2718 23.235 82.3468 22.905 82.4068 22.495L83.0668 22.42L83.1118 22.495C83.0418 22.805 82.9668 23.2 82.8868 23.68C82.8168 24.16 82.7568 24.605 82.7068 25.015L82.6318 25.105C82.0318 25.085 81.4318 25.065 80.8318 25.045C80.2418 25.035 79.7068 25.025 79.2268 25.015C78.7468 25.005 78.3668 25 78.0868 25C77.7768 25 77.4218 25.01 77.0218 25.03C76.6318 25.06 76.2918 25.1 76.0018 25.15ZM78.1768 20.59L78.3118 19.69C78.3818 19.69 78.5168 19.69 78.7168 19.69C78.9168 19.69 79.1318 19.695 79.3618 19.705C79.5918 19.705 79.7918 19.705 79.9618 19.705C80.1318 19.705 80.3918 19.69 80.7418 19.66C81.1018 19.62 81.4518 19.58 81.7918 19.54L81.8518 19.615L81.6418 20.5C81.3618 20.49 81.0118 20.48 80.5918 20.47C80.1818 20.46 79.8318 20.455 79.5418 20.455C79.3518 20.455 79.1268 20.47 78.8668 20.5C78.6168 20.52 78.3868 20.55 78.1768 20.59Z" fill="black" fill-opacity="0.2"/>
<path d="M21.0059 28.585H83.9968V29.71H21.0059V28.585Z" fill="black"/>
<path d="M21.0059 28.585H83.9968V29.71H21.0059V28.585Z" fill="black" fill-opacity="0.2"/>
<a href="https://www.udemy.com/courses/search/?src=ukw&#38;q=FREE+DESIGN+COURSES">
<rect fill="black" fill-opacity="0" x="0.00585938" y="-0.2075" width="62.991" height="20.415"/>
</a>
<path d="M103.999 18.4048L100.005 14.4106L98.8267 15.5892L103.999 20.7618L109.172 15.5892L107.993 14.4106L103.999 18.4048ZM108.999 24.1666H98.9993V22.4999H108.999V24.1666Z" fill="black"/>
</svg>
