<svg width="50" height="50" viewBox="0 0 50 50" fill="none" xmlns="http://www.w3.org/2000/svg">
<g id="Frame">
<path id="Vector" d="M25.5075 8.33398C26.6202 8.34011 29.4041 8.36703 32.3621 8.48551L33.4108 8.53123C36.3889 8.67223 39.3646 8.91311 40.8404 9.32461C42.8089 9.87763 44.3562 11.4913 44.8791 13.5367C45.7118 16.7848 45.816 23.1244 45.8289 24.6586L45.8308 24.9765V24.9988C45.8308 24.9988 45.8308 25.0065 45.8308 25.0213L45.8289 25.3392C45.816 26.8734 45.7118 33.2129 44.8791 36.4611C44.3489 38.514 42.8016 40.1277 40.8404 40.6732C39.3646 41.0846 36.3889 41.3254 33.4108 41.4665L32.3621 41.5121C29.4041 41.6307 26.6202 41.6575 25.5075 41.6638L25.0191 41.6654H24.9975C24.9975 41.6654 24.9902 41.6654 24.9758 41.6654L24.4879 41.6638C22.1329 41.6509 12.2863 41.5444 9.15458 40.6732C7.18602 40.12 5.63877 38.5065 5.11574 36.4611C4.2831 33.2129 4.17902 26.8734 4.16602 25.3392V24.6586C4.17902 23.1244 4.2831 16.7848 5.11574 13.5367C5.64602 11.4837 7.19327 9.87007 9.15458 9.32461C12.2863 8.45321 22.1329 8.34694 24.4879 8.33398H25.5075ZM20.8308 17.7072V32.2904L33.3308 24.9988L20.8308 17.7072Z" fill="#FF0000"/>
</g>
</svg>
